<svg width="1921.000000" height="285.000000" viewBox="0 0 1921 285" fill="none" xmlns="http://www.w3.org/2000/svg" xmlns:xlink="http://www.w3.org/1999/xlink">
	<desc>
			Created with Pixso.
	</desc>
	<defs/>
	<path id="Vector" d="M920.23 42.38C921.05 40.08 923.42 38.7 925.83 39.13L969.88 47.05C972.68 47.55 974.5 50.28 973.88 53.06L972.57 58.92C971.98 61.56 969.41 63.25 966.75 62.75L922.13 54.28C919.12 53.71 917.33 50.59 918.35 47.7L920.23 42.38Z" fill="#022750" fill-opacity="1.000000" fill-rule="nonzero"/>
	<path id="Vector" d="M920.23 42.38C921.05 40.08 923.42 38.7 925.83 39.13L969.88 47.05C972.68 47.55 974.5 50.28 973.88 53.06L972.57 58.92C971.98 61.56 969.41 63.25 966.75 62.75L922.13 54.28C919.12 53.71 917.33 50.59 918.35 47.7L920.23 42.38ZM925.12 43.07L969.17 50.98Q969.38 51.02 969.55 51.13Q969.71 51.24 969.83 51.41Q969.95 51.59 969.98 51.78Q970.02 51.98 969.97 52.18L968.66 58.05Q968.56 58.53 968.27 58.72Q967.98 58.91 967.5 58.82L922.88 50.35Q922.65 50.31 922.48 50.19Q922.31 50.07 922.2 49.87Q922.08 49.67 922.06 49.46Q922.04 49.25 922.12 49.04L924 43.72Q924.15 43.32 924.43 43.16Q924.71 43 925.12 43.07Z" fill="#022750" fill-opacity="1.000000" fill-rule="evenodd"/>
	<path id="Vector" d="M907.11 110.35C907.93 108.04 910.3 106.66 912.71 107.1L956.76 115.01C959.56 115.51 961.37 118.24 960.76 121.02L959.45 126.89C958.86 129.52 956.29 131.21 953.63 130.71L909.01 122.24C906 121.67 904.21 118.55 905.23 115.66L907.11 110.35Z" fill="#022750" fill-opacity="1.000000" fill-rule="nonzero"/>
	<path id="Vector" d="M907.11 110.35C907.93 108.04 910.3 106.66 912.71 107.1L956.76 115.01C959.56 115.51 961.37 118.24 960.76 121.02L959.45 126.89C958.86 129.52 956.29 131.21 953.63 130.71L909.01 122.24C906 121.67 904.21 118.55 905.23 115.66L907.11 110.35ZM912 111.03L956.05 118.94Q956.26 118.98 956.43 119.09Q956.59 119.2 956.71 119.37Q956.83 119.55 956.86 119.75Q956.9 119.94 956.85 120.15L955.54 126.02Q955.44 126.49 955.15 126.68Q954.86 126.87 954.38 126.78L909.76 118.31Q909.53 118.27 909.36 118.15Q909.19 118.03 909.08 117.83Q908.96 117.63 908.94 117.42Q908.92 117.21 909 117L910.88 111.68Q911.03 111.28 911.31 111.12Q911.59 110.96 912 111.03Z" fill="#022750" fill-opacity="1.000000" fill-rule="evenodd"/>
	<path id="Vector" d="M923.3 5.08C927.31 6.17 929.82 10.16 929.06 14.26L904.74 145.53C903.94 149.88 899.76 152.75 895.42 151.95L882.29 149.52C880.86 149.26 879.94 147.86 880.27 146.44L880.27 146.44C880.63 144.86 879.5 143.33 877.89 143.23C862.33 142.24 793.81 134.81 804.32 80.6C804.6 79.19 803.78 77.73 802.39 77.35L802.39 77.35C801.07 76.99 800.24 75.69 800.46 74.34L805.75 42.75C806 41.26 807.34 40.21 808.84 40.33L808.84 40.33C810.49 40.46 811.94 39.2 812.2 37.56C814.03 25.89 825.94 -14.91 902.42 5.73C904.04 6.17 905.77 5.2 906.13 3.56L906.13 3.56C906.48 1.94 908.12 0.94 909.72 1.38L923.3 5.08Z" fill="#CC7E00" fill-opacity="1.000000" fill-rule="nonzero"/>
	<path id="Vector" d="M812.06 38.13C812.12 37.95 812.17 37.76 812.2 37.56C814.03 25.89 825.94 -14.91 902.42 5.73C904.04 6.17 905.77 5.2 906.13 3.56C906.48 1.94 908.12 0.94 909.72 1.38L923.3 5.08C927.31 6.17 929.82 10.16 929.06 14.26L904.74 145.53C903.94 149.88 899.76 152.75 895.42 151.95L882.29 149.52C880.86 149.26 879.94 147.86 880.27 146.44C880.63 144.86 879.5 143.33 877.89 143.23C862.33 142.24 793.81 134.81 804.32 80.6C804.6 79.19 803.78 77.73 802.39 77.35C801.07 76.99 800.24 75.69 800.46 74.34L805.75 42.75C805.94 41.59 806.8 40.7 807.88 40.41C808.18 40.33 808.51 40.3 808.84 40.33C810.13 40.43 811.3 39.68 811.87 38.57C811.94 38.43 812.01 38.29 812.06 38.13ZM925.13 13.53L900.81 144.81Q900.44 146.77 899.28 147.57Q898.11 148.37 896.15 148.01L884.35 145.84Q884.36 145.16 884.23 144.51Q883.94 143.12 882.98 141.86Q882.05 140.63 880.81 139.98Q879.6 139.33 878.09 139.23Q851.85 137.56 833.03 128.25Q816.14 119.9 810.31 106.67Q805.46 95.68 808.26 81.31Q808.52 80.01 808.3 78.79Q808.08 77.6 807.41 76.49Q806.71 75.33 805.69 74.57Q805.18 74.19 804.59 73.91L809.19 46.41Q809.36 45.4 809.95 44.94Q810.55 44.47 811.57 44.55L811.72 44.56L811.87 44.56Q813.81 44.56 814.81 43.59Q815.81 42.62 815.87 40.68Q815.97 37.53 817.37 32.9Q819.37 26.3 823.23 21.05Q824.82 18.89 826.72 16.96Q827.68 15.99 828.7 15.1Q850.56 -4.14 901.45 9.62Q902.88 10 904.23 9.81Q905.58 9.62 906.85 8.86Q908.13 8.09 908.93 6.97Q909.4 6.31 909.7 5.52L922.24 8.94Q924.02 9.42 924.74 10.57Q925.46 11.72 925.13 13.53Z" fill="#022750" fill-opacity="1.000000" fill-rule="evenodd"/>
	<path id="Vector" d="M1026.91 33.89C1022.83 33.42 1019.05 36.24 1018.29 40.28L995.5 161.58C994.78 165.41 996.91 169.18 1000.65 170.31C1021.41 176.59 1086.24 191.82 1096.02 140.49C1096.39 138.51 1098.21 137.04 1100.21 137.29L1100.21 137.29C1102.12 137.53 1103.89 136.25 1104.26 134.36L1110 105.07C1110.31 103.4 1109.17 101.81 1107.48 101.6L1107.48 101.6C1105.55 101.36 1104.31 99.3 1104.81 97.41C1108.12 84.77 1112.04 43.58 1026.91 33.89Z" fill="#CC7E00" fill-opacity="1.000000" fill-rule="nonzero"/>
	<path id="Vector" d="M1026.91 33.89C1022.83 33.42 1019.05 36.24 1018.29 40.28L995.5 161.58C994.78 165.41 996.91 169.18 1000.65 170.31C1021.41 176.59 1086.24 191.82 1096.02 140.49C1096.39 138.51 1098.21 137.04 1100.21 137.29C1102.12 137.53 1103.89 136.25 1104.26 134.36L1110 105.07C1110.31 103.4 1109.17 101.81 1107.48 101.6C1105.55 101.36 1104.31 99.3 1104.81 97.41C1108.12 84.77 1112.04 43.58 1026.91 33.89ZM999.8 165.12Q999.11 164.05 999.43 162.32L1022.22 41.02Q1022.57 39.18 1023.66 38.4Q1024.68 37.66 1026.39 37.85Q1079.51 43.89 1095.74 66.83Q1100.12 73.02 1101.56 79.83Q1103.21 87.7 1100.93 96.39Q1100.55 97.89 1100.75 99.31Q1100.96 100.82 1101.84 102.23Q1102.81 103.79 1104.21 104.64Q1104.98 105.1 1105.87 105.35L1100.39 133.29Q1099.05 133.17 1097.81 133.49Q1096.38 133.86 1095.09 134.84Q1093.9 135.75 1093.16 136.93Q1092.39 138.16 1092.1 139.69Q1089.68 152.46 1082.16 160.39Q1071.89 171.21 1052.13 173.02Q1030.07 175.04 1001.82 166.48Q1000.42 166.06 999.8 165.12Z" fill="#022750" fill-opacity="1.000000" fill-rule="evenodd"/>
	<mask id="mask_752_3915" fill="white">
		<path id="Subtract" d="M1105.85 115.945Q1125.52 117.597 1150.68 121.932Q1201.23 130.644 1229.22 144.25Q1254.8 156.693 1303.37 176.1Q1356.19 197.205 1375.57 201.765Q1396.79 206.758 1443.41 209.864Q1501.87 213.759 1547.07 209.197Q1566.42 205.877 1595.71 207.532Q1639 209.979 1678.02 224.163Q1691.9 229.21 1705.25 235.743L1705.5 235.864L1705.73 236.016Q1710.1 238.89 1719.07 242.167Q1737.37 248.854 1760.01 250.305Q1832.23 254.932 1920 205.777L1920 215.747Q1832.47 263.687 1759.45 259.008Q1735.56 257.477 1716.07 250.359Q1706.38 246.817 1701.17 243.459Q1688.73 237.383 1675.8 232.639L1675.79 232.634Q1637.63 218.637 1595.22 216.24Q1566.81 214.634 1548.41 217.817L1548.26 217.843L1548.1 217.858Q1502.12 222.517 1442.83 218.566Q1395.49 215.412 1373.57 210.254Q1353.56 205.546 1300.13 184.198Q1251.27 164.675 1225.4 152.094Q1198.53 139.028 1149.2 130.527Q1124.42 126.256 1105.12 124.636L1105.85 115.945Z" clip-rule="evenodd" fill="" fill-opacity="1.000000" fill-rule="evenodd"/>
	</mask>
	<path id="Subtract" d="M1105.85 115.945Q1125.52 117.597 1150.68 121.932Q1201.23 130.644 1229.22 144.25Q1254.8 156.693 1303.37 176.1Q1356.19 197.205 1375.57 201.765Q1396.79 206.758 1443.41 209.864Q1501.87 213.759 1547.07 209.197Q1566.42 205.877 1595.71 207.532Q1639 209.979 1678.02 224.163Q1691.9 229.21 1705.25 235.743L1705.5 235.864L1705.73 236.016Q1710.1 238.89 1719.07 242.167Q1737.37 248.854 1760.01 250.305Q1832.23 254.932 1920 205.777L1920 215.747Q1832.47 263.687 1759.45 259.008Q1735.56 257.477 1716.07 250.359Q1706.38 246.817 1701.17 243.459Q1688.73 237.383 1675.8 232.639L1675.79 232.634Q1637.63 218.637 1595.22 216.24Q1566.81 214.634 1548.41 217.817L1548.26 217.843L1548.1 217.858Q1502.12 222.517 1442.83 218.566Q1395.49 215.412 1373.57 210.254Q1353.56 205.546 1300.13 184.198Q1251.27 164.675 1225.4 152.094Q1198.53 139.028 1149.2 130.527Q1124.42 126.256 1105.12 124.636L1105.85 115.945Z" clip-rule="evenodd" fill="#CC7E00" fill-opacity="1.000000" fill-rule="evenodd" mask="url(#mask_752_3915)"/>
	<path id="Subtract" d="M1105.93 114.948Q1125.65 116.604 1150.85 120.946Q1201.54 129.682 1229.65 143.351Q1255.21 155.779 1303.74 175.171Q1356.5 196.249 1375.8 200.791Q1396.94 205.766 1443.48 208.866Q1501.86 212.756 1546.97 208.202L1547.07 209.197L1546.91 208.211Q1566.37 204.873 1595.77 206.534Q1639.2 208.989 1678.36 223.224Q1692.3 228.289 1705.69 234.844L1705.99 234.994L1706.28 235.18Q1710.55 237.991 1719.41 241.228Q1737.58 247.865 1760.07 249.307Q1832 253.917 1919.51 204.905L1921 204.071L1921 216.339L1920.48 216.624Q1832.69 264.704 1759.39 260.006Q1735.35 258.466 1715.73 251.298Q1705.93 247.718 1700.63 244.299L1701.17 243.459L1700.74 244.357Q1688.34 238.304 1675.46 233.578L1675.44 233.573Q1637.43 219.627 1595.16 217.238Q1566.87 215.639 1548.58 218.802L1548.39 218.834L1548.2 218.854Q1502.14 223.52 1442.76 219.563Q1395.35 216.404 1373.34 211.228Q1353.26 206.502 1299.76 185.127Q1250.87 165.591 1224.96 152.993Q1198.22 139.989 1149.03 131.512Q1124.29 127.249 1105.04 125.632L1104.04 125.548L1104.94 114.865L1105.93 114.948ZM1105.77 116.941L1105.85 115.945L1106.85 116.028L1106.12 124.719L1105.12 124.636L1105.2 123.639Q1124.54 125.263 1149.37 129.541Q1198.84 138.066 1225.84 151.194Q1251.68 163.76 1300.51 183.27Q1353.86 204.59 1373.8 209.281Q1395.64 214.42 1442.9 217.568Q1502.11 221.513 1548 216.863L1548.16 216.848L1548.26 217.843L1548.09 216.857L1548.24 216.832Q1566.75 213.63 1595.27 215.242Q1637.83 217.647 1676.13 231.696L1676.15 231.7Q1689.13 236.461 1701.61 242.561L1701.67 242.586L1701.72 242.619Q1706.83 245.916 1716.42 249.42Q1735.77 256.488 1759.52 258.01Q1832.24 262.67 1919.52 214.87L1920 215.747L1919 215.747L1919 205.777L1920 205.777L1920.49 206.65Q1832.46 255.949 1759.95 251.303Q1737.16 249.843 1718.72 243.106Q1709.64 239.79 1705.18 236.851L1704.95 236.7L1705.5 235.864L1705.06 236.762L1704.81 236.641Q1691.51 230.132 1677.68 225.103Q1638.8 210.969 1595.65 208.531Q1566.48 206.882 1547.24 210.182L1547.21 210.188L1547.17 210.191Q1501.89 214.763 1443.34 210.861Q1396.64 207.75 1375.34 202.738Q1355.89 198.162 1303 177.028Q1254.4 157.609 1228.78 145.15Q1200.93 131.604 1150.51 122.917Q1125.4 118.589 1105.77 116.941Z" fill="#022750" fill-opacity="1.000000" fill-rule="nonzero"/>
	<mask id="mask_752_3918" fill="white">
		<path id="Subtract" d="M0.000366211 149.619Q185.789 233.235 217.434 244.401Q219.099 244.988 222.791 246.304Q258.842 259.144 283.61 265.153Q327.841 275.885 364.347 274.359Q399.922 272.864 434.126 266.282Q486.216 256.26 526.678 235.88Q584.008 207.054 626.417 169.873Q669.107 132.449 694.134 98.0259Q699.478 90.5942 705.74 84.0386L705.742 84.0361Q719.229 69.916 736.972 59.8608Q750.709 52.1992 769.683 50.6943Q788.493 49.2026 805.138 54.3145L802.577 62.6519Q787.524 58.0283 770.373 59.3887Q753.296 60.7427 741.272 67.4487Q724.578 76.9097 711.914 90.208Q706.131 96.2808 701.188 103.154Q675.589 138.365 632.167 176.431Q588.921 214.345 530.602 243.669Q489.056 264.595 435.774 274.847Q400.934 281.55 364.711 283.073Q326.979 284.65 281.554 273.629Q256.344 267.512 219.865 254.52Q216.191 253.211 214.532 252.626Q182.852 241.446 0.000366211 159.183L0.000366211 149.619Z" clip-rule="evenodd" fill="" fill-opacity="1.000000" fill-rule="evenodd"/>
	</mask>
	<path id="Subtract" d="M0.000366211 149.619Q185.789 233.235 217.434 244.401Q219.099 244.988 222.791 246.304Q258.842 259.144 283.61 265.153Q327.841 275.885 364.347 274.359Q399.922 272.864 434.126 266.282Q486.216 256.26 526.678 235.88Q584.008 207.054 626.417 169.873Q669.107 132.449 694.134 98.0259Q699.478 90.5942 705.74 84.0386L705.742 84.0361Q719.229 69.916 736.972 59.8608Q750.709 52.1992 769.683 50.6943Q788.493 49.2026 805.138 54.3145L802.577 62.6519Q787.524 58.0283 770.373 59.3887Q753.296 60.7427 741.272 67.4487Q724.578 76.9097 711.914 90.208Q706.131 96.2808 701.188 103.154Q675.589 138.365 632.167 176.431Q588.921 214.345 530.602 243.669Q489.056 264.595 435.774 274.847Q400.934 281.55 364.711 283.073Q326.979 284.65 281.554 273.629Q256.344 267.512 219.865 254.52Q216.191 253.211 214.532 252.626Q182.852 241.446 0.000366211 159.183L0.000366211 149.619Z" clip-rule="evenodd" fill="#CC7E00" fill-opacity="1.000000" fill-rule="evenodd" mask="url(#mask_752_3918)"/>
	<path id="Subtract" d="M0.410767 148.707Q186.163 232.307 217.767 243.458L223.126 245.361Q259.13 258.185 283.846 264.182Q327.941 274.88 364.305 273.36Q399.803 271.868 433.938 265.3Q485.889 255.305 526.229 234.987Q583.442 206.219 625.758 169.121Q668.36 131.773 693.325 97.4375Q698.706 89.9551 705.016 83.3477L705.023 83.3408Q718.608 69.1187 736.479 58.9912Q750.413 51.2192 769.604 49.6973Q788.604 48.1909 805.431 53.3589L806.387 53.6523L803.24 63.9014L802.284 63.6074Q787.413 59.0405 770.452 60.3853Q753.592 61.7222 741.759 68.3223Q725.201 77.7061 712.638 90.8975Q706.903 96.9204 702 103.738Q676.336 139.04 632.826 177.183Q589.481 215.183 531.051 244.563Q489.379 265.552 435.963 275.829Q401.048 282.546 364.753 284.072Q326.88 285.654 281.318 274.601Q256.059 268.472 219.53 255.461L214.197 253.568Q182.474 242.374 -0.409912 160.095L-0.999634 159.83L-0.999634 148.072L0.410767 148.707ZM-0.410034 150.531L0.000366211 149.619L1.00037 149.619L1.00037 159.183L0.000366211 159.183L0.410645 158.271Q183.219 240.515 214.866 251.684L220.201 253.578Q256.632 266.553 281.789 272.657Q327.078 283.646 364.669 282.074Q400.815 280.555 435.585 273.865Q488.729 263.64 530.152 242.776Q588.356 213.51 631.507 175.679Q674.85 137.683 700.376 102.57Q705.359 95.6411 711.19 89.5186Q723.956 76.1123 740.785 66.5752Q752.999 59.7632 770.294 58.3916Q787.634 57.0166 802.871 61.6958L802.577 62.6519L801.622 62.3579L804.182 54.021L805.138 54.3145L804.844 55.2705Q788.382 50.2148 769.762 51.6914Q751.005 53.1787 737.465 60.731Q719.851 70.7129 706.461 84.731L706.463 84.729Q700.248 91.2358 694.943 98.6138Q669.848 133.129 627.076 170.625Q584.567 207.891 527.128 236.773Q486.539 257.217 434.315 267.265Q400.035 273.86 364.389 275.358Q327.744 276.89 283.374 266.125Q258.557 260.104 222.457 247.246L217.101 245.345Q185.419 234.164 -0.410034 150.531Z" fill="#022750" fill-opacity="1.000000" fill-rule="nonzero"/>
</svg>
