<svg width="140" height="50" viewBox="0 0 140 50" fill="none" xmlns="http://www.w3.org/2000/svg">
<g clip-path="url(#clip0_1888_7270)">
<path fill-rule="evenodd" clip-rule="evenodd" d="M61.2852 8.48145C61.2852 8.48145 61.2852 8.48145 64.2298 8.48145C65.3028 8.48145 65.8433 9.01157 65.8433 10.2084C65.8433 10.2084 65.8433 10.2084 65.8433 14.4493C65.8433 14.4493 65.8433 14.4493 71.6116 14.4493C71.6116 14.4493 71.6116 14.4493 71.6116 10.2084C71.6116 9.01157 72.1441 8.48145 73.3542 8.48145C73.3542 8.48145 73.3542 8.48145 76.1698 8.48145C76.1698 8.48145 76.1698 8.48145 76.1698 11.2686C76.1698 11.2686 76.1698 11.2686 74.9677 11.2686L74.8306 11.4051C74.8306 11.4051 74.8306 11.4051 74.8306 23.3409C74.8306 23.3409 74.8306 23.3409 71.6116 23.3409C71.6116 23.3409 71.6116 23.3409 71.6116 17.373C71.6116 17.373 71.6116 17.373 65.8433 17.373C65.8433 17.373 65.8433 17.373 65.8433 23.3409C65.8433 23.3409 65.8433 23.3409 62.6244 23.3409C62.6244 23.3409 62.6244 23.3409 62.6244 11.4051C62.6244 11.4051 62.6244 11.2686 62.4872 11.2686C62.4872 11.2686 62.4872 11.2686 61.2852 11.2686C61.2852 11.2686 61.2852 11.2686 61.2852 8.48145Z" fill="#ED1C24"/>
<path fill-rule="evenodd" clip-rule="evenodd" d="M84.6165 8.2168L84.6891 8.22483V11.2851L84.6165 11.269C82.2043 11.269 80.3245 13.261 80.3245 15.7831C80.3245 18.4337 82.2043 20.5541 84.6165 20.5541L84.6891 20.5381V23.5983L84.6165 23.6064C80.3245 23.6064 76.8394 20.1606 76.8394 15.7831C76.8394 11.5341 80.3245 8.2168 84.6165 8.2168Z" fill="#ED1C24"/>
<path fill-rule="evenodd" clip-rule="evenodd" d="M84.689 8.22461L86.1815 8.36919C89.7231 9.05995 92.3935 12.064 92.3935 15.7828C92.3935 19.6061 89.7231 22.7306 86.1815 23.4455L84.689 23.5981V20.5379L86.3267 20.1845C87.9079 19.4616 89.0454 17.7668 89.0454 15.7828C89.0454 13.8873 87.9079 12.2969 86.3267 11.6222L84.689 11.2849V8.22461Z" fill="#ED1C24"/>
<path fill-rule="evenodd" clip-rule="evenodd" d="M93.063 8.48145C93.063 8.48145 93.063 8.48145 97.5566 8.48145H99.7026V11.2686H99.5009C99.2347 11.2686 98.6941 11.2686 97.6211 11.2686C97.6211 11.2686 97.6211 11.2686 97.6211 14.3208C97.6211 14.3208 97.6212 14.3208 98.5328 14.3208H99.7026V16.9714H99.0168C98.678 16.9714 98.2262 16.9714 97.6211 16.9714C97.6211 16.9714 97.6211 16.9714 97.6211 20.2887C97.6211 20.4252 97.6211 20.4252 97.7583 20.4252C97.7583 20.4252 97.7583 20.4252 98.7183 20.4252H99.7026V23.3409H99.4202C98.9362 23.3409 97.96 23.3409 96.0157 23.3409C94.9427 23.3409 94.4103 22.8108 94.4103 21.614V11.2686C94.4103 11.2686 94.4103 11.2686 93.063 11.2686C93.063 11.2686 93.063 11.2686 93.063 8.48145Z" fill="#ED1C24"/>
<path fill-rule="evenodd" clip-rule="evenodd" d="M99.7026 8.48145H99.7672C102.72 8.48145 104.462 10.0718 104.462 12.4654C104.462 13.9192 103.793 14.8509 103.123 15.5176C104.333 16.0477 105.132 17.373 105.132 18.8268C105.132 21.614 102.986 23.3409 99.9043 23.3409C99.9043 23.3409 99.9043 23.3409 99.8479 23.3409H99.7026V20.4252H100.033C101.106 20.4252 101.784 19.7586 101.784 18.6983C101.784 17.6381 101.106 16.9714 100.033 16.9714C100.033 16.9714 100.033 16.9714 99.7349 16.9714H99.7026V14.3208H99.7672C100.711 14.3208 101.244 13.6541 101.244 12.7304C101.244 11.7987 100.711 11.2686 99.7672 11.2686C99.7672 11.2686 99.7672 11.2686 99.7349 11.2686H99.7026V8.48145Z" fill="#ED1C24"/>
<path fill-rule="evenodd" clip-rule="evenodd" d="M111.304 8.48145C111.304 8.48145 111.304 8.48145 112.659 8.48145H112.909V12.7304C112.78 12.9955 112.643 13.3891 112.643 13.7907C112.643 13.7907 112.643 13.7907 111.57 16.8429C111.57 16.8429 111.57 16.8429 112.708 16.8429H112.909V19.622H112.183C111.772 19.622 111.304 19.622 110.771 19.622C110.771 19.622 110.771 19.622 109.828 22.0156C109.561 22.9393 109.029 23.3409 107.956 23.3409C107.956 23.3409 107.956 23.3409 105.939 23.3409C105.939 23.3409 105.939 23.3409 105.939 20.4252C105.939 20.4252 105.939 20.4252 106.609 20.4252C106.883 20.4252 106.883 20.4252 107.012 20.2887C107.012 20.2887 107.012 20.2887 111.304 8.48145Z" fill="#ED1C24"/>
<path fill-rule="evenodd" clip-rule="evenodd" d="M112.909 8.48145H114.523C114.523 8.48145 114.523 8.48145 118.815 20.2887C118.944 20.4252 118.944 20.4252 119.21 20.4252C119.21 20.4252 119.21 20.4252 119.75 20.4252C119.75 20.4252 119.75 20.4252 119.75 23.3409C119.75 23.3409 119.75 23.3409 117.871 23.3409C116.798 23.3409 116.265 22.9393 115.991 21.879C115.991 21.879 115.991 21.879 115.055 19.622C115.055 19.622 115.055 19.622 113.248 19.622H112.909V16.8429H114.248C114.248 16.8429 114.248 16.8429 113.183 13.7907C113.183 13.3891 113.046 12.9955 112.909 12.7304V8.48145Z" fill="#ED1C24"/>
<path fill-rule="evenodd" clip-rule="evenodd" d="M61.2852 27.582C61.2852 27.582 61.2852 27.582 72.9508 27.582C74.0238 27.582 74.6934 28.1122 74.6934 29.3089C74.6934 29.3089 74.6934 29.3089 74.6934 39.3893C74.6934 39.5178 74.6934 39.5178 74.8306 39.5178C74.8306 39.5178 74.8306 39.5178 75.9035 39.5178C75.9035 39.5178 75.9035 39.5178 75.9035 42.4415C75.9035 42.4415 75.9035 42.4415 73.088 42.4415C71.8778 42.4415 71.3454 41.9113 71.3454 40.7146C71.3454 40.7146 71.3454 40.7146 71.3454 30.5057C71.3454 30.5057 71.3454 30.3692 71.2082 30.3692C71.2082 30.3692 71.2082 30.3692 65.8433 30.3692C65.8433 30.3692 65.8433 30.3692 65.8433 42.4415C65.8433 42.4415 65.8433 42.4415 62.6244 42.4415C62.6244 42.4415 62.6244 42.4415 62.6244 30.3692C62.6244 30.3692 62.6244 30.3692 61.2852 30.3692C61.2852 30.3692 61.2852 30.3692 61.2852 27.582Z" fill="#ED1C24"/>
<path fill-rule="evenodd" clip-rule="evenodd" d="M84.3502 27.3174L84.4147 27.3254V30.3857L84.3502 30.3696C81.9299 30.3696 80.0582 32.3616 80.0582 34.8836C80.0582 37.5343 81.9299 39.6547 84.3502 39.6547L84.4147 39.6387V42.6989L84.3502 42.7069C80.0582 42.7069 76.7021 39.2531 76.7021 34.8836C76.7021 30.6347 80.0582 27.3174 84.3502 27.3174Z" fill="#ED1C24"/>
<path fill-rule="evenodd" clip-rule="evenodd" d="M84.4146 27.3252L85.9555 27.4698C89.5616 28.1605 92.1271 31.1646 92.1271 34.8834C92.1271 38.7067 89.5616 41.8312 85.9555 42.5461L84.4146 42.6987V39.6385L86.1168 39.285C87.7222 38.5621 88.7791 36.8674 88.7791 34.8834C88.7791 32.9878 87.7222 31.3975 86.1168 30.7228L84.4146 30.3854V27.3252Z" fill="#ED1C24"/>
<path fill-rule="evenodd" clip-rule="evenodd" d="M92.7969 27.582C92.7969 27.582 92.7969 27.582 95.7496 27.582C96.8226 27.582 97.355 28.1122 97.355 29.3089C97.355 29.3089 97.355 29.3089 97.355 39.3893C97.355 39.5178 97.355 39.5178 97.4922 39.5178C97.4922 39.5178 97.4922 39.5178 101.381 39.5178C101.381 39.5178 101.381 39.5178 101.381 27.582C101.381 27.582 101.381 27.582 104.6 27.582C104.6 27.582 104.6 27.582 104.6 39.5178C104.6 39.5178 104.6 39.5178 108.488 39.5178C108.625 39.5178 108.625 39.5178 108.625 39.3893C108.625 39.3893 108.625 39.3893 108.625 29.3089C108.625 28.1122 109.158 27.582 110.231 27.582C110.231 27.582 110.231 27.582 113.184 27.582C113.184 27.582 113.184 27.582 113.184 30.3692C113.184 30.3692 113.184 30.3692 111.973 30.3692C111.836 30.3692 111.836 30.5057 111.836 30.5057C111.836 30.5057 111.836 30.5057 111.836 40.7146C111.836 41.9113 111.304 42.4415 110.231 42.4415C110.231 42.4415 110.231 42.4415 95.8787 42.4415C94.6766 42.4415 94.1361 41.9113 94.1361 40.7146C94.1361 40.7146 94.1361 40.7146 94.1361 30.5057C94.1361 30.5057 94.1361 30.3692 94.007 30.3692C94.007 30.3692 94.007 30.3692 92.7969 30.3692C92.7969 30.3692 92.7969 30.3692 92.7969 27.582Z" fill="#ED1C24"/>
<path fill-rule="evenodd" clip-rule="evenodd" d="M115.725 27.582C115.725 27.582 115.725 27.582 125.785 27.582C126.995 27.582 127.399 28.1122 127.399 29.1724C127.399 29.1724 127.399 29.1724 127.399 31.6945H124.446C124.446 31.6945 124.446 31.6945 124.446 30.5057C124.446 30.3692 124.446 30.3692 124.309 30.3692C124.309 30.3692 124.309 30.3692 122.437 30.3692C122.437 30.3692 122.437 30.3692 122.437 42.4415C122.437 42.4415 122.437 42.4415 119.21 42.4415C119.21 42.4415 119.21 42.4415 119.21 30.3692C119.21 30.3692 119.21 30.3692 117.338 30.3692C117.201 30.3692 117.201 30.3692 117.201 30.5057C117.201 30.5057 117.201 30.5057 117.201 31.6945C117.201 31.6945 117.201 31.6945 114.249 31.6945C114.249 31.6945 114.249 31.6945 114.249 29.1724C114.249 28.1122 114.652 27.582 115.725 27.582Z" fill="#ED1C24"/>
<path fill-rule="evenodd" clip-rule="evenodd" d="M131.553 27.582C131.553 27.582 131.553 27.582 132.909 27.582H133.159V31.831C133.022 32.0961 132.893 32.4897 132.893 32.8913C132.893 32.8913 132.893 32.8913 131.82 35.9435C131.82 35.9435 131.82 35.9435 132.949 35.9435H133.159V38.7226H132.433C132.021 38.7226 131.553 38.7226 131.013 38.7226C131.013 38.7226 131.013 38.7226 130.077 40.9796C129.811 42.0399 129.27 42.4415 128.197 42.4415C128.197 42.4415 128.197 42.4415 126.188 42.4415C126.188 42.4415 126.188 42.4415 126.188 39.5178C126.188 39.5178 126.188 39.5178 126.858 39.5178C127.132 39.5178 127.132 39.5178 127.261 39.3893C127.261 39.3893 127.261 39.3893 131.553 27.582Z" fill="#ED1C24"/>
<path fill-rule="evenodd" clip-rule="evenodd" d="M133.159 27.582H134.764C134.764 27.582 134.764 27.582 139.064 39.3893C139.193 39.5178 139.193 39.5178 139.468 39.5178H140C140 39.5178 140 39.5178 140 42.4415C140 42.4415 140 42.4415 138.12 42.4415C137.047 42.4415 136.515 42.0399 136.24 40.9796C136.24 40.9796 136.24 40.9796 135.305 38.7226C135.305 38.7226 135.305 38.7226 133.498 38.7226H133.159V35.9435H134.498C134.498 35.9435 134.498 35.9435 133.425 32.8913C133.425 32.4897 133.296 32.0961 133.159 31.831V27.582Z" fill="#ED1C24"/>
<path fill-rule="evenodd" clip-rule="evenodd" d="M40.6161 14.803C40.7693 14.7548 40.971 14.8511 41.1727 15.1162C41.1727 15.1162 41.1727 15.1162 50.289 23.9997C50.8215 24.5299 50.8215 25.3331 50.289 25.7266C50.289 25.7266 50.289 25.7266 41.1727 34.7467C40.971 35.0118 40.7693 35.076 40.6161 34.9957C40.4628 34.9154 40.366 34.6825 40.366 34.3451V15.3813C40.366 15.052 40.4628 14.8511 40.6161 14.803Z" fill="#ED1C24"/>
<path fill-rule="evenodd" clip-rule="evenodd" d="M25.0214 0H25.6668L26.288 0.257029C26.288 0.257029 26.288 0.257028 35.6706 9.54217C36.074 10.0723 35.9368 10.4739 35.2672 10.4739C35.2672 10.4739 35.2672 10.4739 31.3787 10.4739C30.7091 10.4739 30.1766 11.004 30.1766 11.6707C30.1766 11.6707 30.1766 11.6707 30.1766 18.5622C30.1766 19.2289 29.6361 19.759 28.8293 19.759C28.8293 19.759 28.8293 19.759 21.9961 19.759C21.3265 19.759 20.786 19.2289 20.786 18.5622C20.786 18.5622 20.786 18.5623 20.786 11.6707C20.786 11.004 20.2535 10.4739 19.5759 10.4739H15.4211C14.7515 10.4739 14.6143 10.0723 15.0177 9.54217C15.0177 9.54217 15.0177 9.54217 24.4083 0.257029L25.0214 0Z" fill="#ED1C24"/>
<path fill-rule="evenodd" clip-rule="evenodd" d="M10.3224 14.6027C10.4918 14.683 10.5967 14.9159 10.5967 15.2533V34.6107C10.5967 34.948 10.4918 35.1488 10.3224 35.2131C10.1611 35.2774 9.9271 35.2131 9.65281 35.0123C9.65281 35.0123 9.65281 35.0123 0.399343 25.7272C-0.133114 25.3336 -0.133114 24.5304 0.399343 24.0003C0.399343 24.0003 0.399344 24.0003 9.65281 14.8517C9.9271 14.5866 10.1611 14.5223 10.3224 14.6027Z" fill="#ED1C24"/>
<path fill-rule="evenodd" clip-rule="evenodd" d="M21.9961 29.8398C21.9961 29.8398 21.9961 29.8398 28.8293 29.8398C29.6361 29.8398 30.1766 30.37 30.1766 31.0366C30.1766 31.0366 30.1766 31.0366 30.1766 38.3298C30.1766 39.125 30.7091 39.6551 31.3787 39.6551H35.001C35.6706 39.6551 35.9368 40.0487 35.4044 40.4503C35.4044 40.4503 35.4044 40.4503 26.2881 49.5989C26.0138 49.8639 25.683 50.0005 25.3442 50.0005C25.0134 50.0005 24.6746 49.8639 24.4083 49.5989C24.4083 49.5989 24.4083 49.5989 15.292 40.4503C14.7515 40.0487 15.0177 39.6551 15.6873 39.6551C15.6873 39.6551 15.6873 39.6551 19.5759 39.6551C20.2535 39.6551 20.786 39.125 20.786 38.3298C20.786 38.3298 20.786 38.3298 20.786 31.0366C20.786 30.37 21.3265 29.8398 21.9961 29.8398Z" fill="#ED1C24"/>
</g>
<defs>
<clipPath id="clip0_1888_7270">
<rect width="140" height="50" fill="white"/>
</clipPath>
</defs>
</svg>
