<svg width="398" height="400" viewBox="0 0 398 400" fill="none" xmlns="http://www.w3.org/2000/svg">
<g clip-path="url(#clip0_221_2521)">
<path d="M204.861 399.983C311.177 399.983 397.362 313.507 397.362 206.834C397.362 100.161 311.177 13.6851 204.861 13.6851C98.545 13.6851 12.359 100.161 12.359 206.834C12.359 313.507 98.545 399.983 204.861 399.983Z" fill="#CC7E00" fill-opacity="0.2"/>
<path d="M347.21 60.9233L389.937 61.4029V182.77L381.743 209.129L368.582 216.306L350.248 224.955L324.438 232.389L347.21 60.9233Z" fill="#023C7C"/>
<path d="M60.5482 63.5264H103.565L140.54 257.48H97.4712L60.5482 63.5264Z" fill="#2D5E94"/>
<path d="M280.636 61.8824C280.124 91.3077 256.208 114.995 226.762 114.995C197.316 114.995 173.4 91.2906 172.888 61.8824H97.4714L130.656 261.351L319.454 233.245C319.454 233.245 354.038 234.889 356.206 154.92L357.247 61.8652H280.636V61.8824Z" fill="#022750"/>
<path d="M91.9236 273.598L53.8227 64.7598C53.43 62.6188 53.0374 60.495 52.6619 58.354C51.5523 52.1024 50.1696 43.8298 49.2307 35.4543C46.9604 14.9182 30.2315 13.7707 28.7976 13.7021H6.82812C3.05558 13.7021 0 10.6363 0 6.85107C0 3.06586 3.05558 0 6.82812 0H29.1049C39.5007 0.291171 59.9167 7.75884 62.8187 33.9299C63.7064 41.9286 65.0549 49.8929 66.1133 55.9562C66.4888 58.08 66.8644 60.1867 67.257 62.2934L103.002 258.251C140.045 253.164 324.336 227.661 353.867 219.577C381.504 212.024 383.04 188.422 383.109 187.086V68.2538H282.548C278.775 68.2538 275.719 65.188 275.719 61.4028C275.719 57.6175 278.775 54.5517 282.548 54.5517H396.765V187.394C396.458 199.469 387.837 224.493 357.452 232.8C323.892 241.98 107.56 271.474 98.3761 272.724L91.9236 273.598Z" fill="black"/>
<path d="M172.871 68.2539H60.1556C56.383 68.2539 53.3275 65.188 53.3275 61.4028C53.3275 57.6176 56.383 54.5518 60.1556 54.5518H172.871C176.643 54.5518 179.699 57.6176 179.699 61.4028C179.699 65.188 176.643 68.2539 172.871 68.2539Z" fill="black"/>
<path d="M96.5836 330.102C83.6443 330.102 59.2167 323.422 54.9321 297.611C53.5665 289.355 55.3759 281.733 60.1727 275.602C71.2513 261.42 94.3474 259.279 96.9592 259.09C100.732 258.799 103.992 261.625 104.282 265.411C104.573 269.179 101.756 272.467 97.9834 272.758C92.555 273.187 77.1576 276.064 70.9099 284.08C68.4859 287.197 67.6665 290.879 68.4176 295.367C71.9341 316.571 96.2934 316.4 97.3347 316.4H389.954C393.726 316.4 396.782 319.466 396.782 323.251C396.782 327.036 393.726 330.102 389.954 330.102H97.4713C97.1811 330.102 96.8738 330.102 96.5836 330.102Z" fill="black"/>
<path d="M227.701 108.281C253.806 108.281 274.968 87.0477 274.968 60.8548C274.968 34.6618 253.806 13.4282 227.701 13.4282C201.595 13.4282 180.433 34.6618 180.433 60.8548C180.433 87.0477 201.595 108.281 227.701 108.281Z" fill="#F4B247"/>
<path d="M138.133 385.39C149.182 385.39 158.139 376.403 158.139 365.316C158.139 354.23 149.182 345.243 138.133 345.243C127.084 345.243 118.127 354.23 118.127 365.316C118.127 376.403 127.084 385.39 138.133 385.39Z" fill="#CC7E00"/>
<path d="M331.454 385.39C342.503 385.39 351.461 376.403 351.461 365.316C351.461 354.23 342.503 345.243 331.454 345.243C320.405 345.243 311.448 354.23 311.448 365.316C311.448 376.403 320.405 385.39 331.454 385.39Z" fill="#CC7E00"/>
<path d="M247.519 90.1258C245.778 90.1258 244.02 89.4578 242.688 88.1219L200.03 45.3198C197.367 42.6479 197.367 38.3146 200.03 35.6255C202.693 32.9536 207.012 32.9536 209.692 35.6255L252.35 78.4276C255.013 81.0995 255.013 85.4328 252.35 88.1219C251.002 89.4578 249.261 90.1258 247.519 90.1258Z" fill="black"/>
<path d="M204.861 90.1258C203.12 90.1258 201.361 89.4578 200.03 88.1219C197.367 85.45 197.367 81.0995 200.03 78.4276L242.688 35.6255C245.351 32.9536 249.67 32.9536 252.35 35.6255C255.013 38.2974 255.013 42.6479 252.35 45.3198L209.692 88.1219C208.36 89.4578 206.602 90.1258 204.861 90.1258Z" fill="black"/>
<path d="M138.133 397.003C120.721 397.003 106.553 382.787 106.553 365.317C106.553 347.846 120.721 333.63 138.133 333.63C155.544 333.63 169.713 347.846 169.713 365.317C169.713 382.787 155.544 397.003 138.133 397.003ZM138.133 347.333C128.249 347.333 120.209 355.4 120.209 365.317C120.209 375.234 128.249 383.301 138.133 383.301C148.016 383.301 156.056 375.234 156.056 365.317C156.056 355.4 148.016 347.333 138.133 347.333Z" fill="black"/>
<path d="M226.182 119.791C193.577 119.791 167.067 93.1745 167.067 60.4777C167.067 27.781 193.594 1.16455 226.182 1.16455C258.786 1.16455 285.296 27.781 285.296 60.4777C285.296 93.1745 258.786 119.791 226.182 119.791ZM226.182 14.8667C201.122 14.8667 180.723 35.3343 180.723 60.4777C180.723 85.6212 201.122 106.089 226.182 106.089C251.241 106.089 271.64 85.6212 271.64 60.4777C271.64 35.3343 251.258 14.8667 226.182 14.8667Z" fill="black"/>
<path d="M331.454 397.003C314.042 397.003 299.874 382.787 299.874 365.317C299.874 347.846 314.042 333.63 331.454 333.63C348.866 333.63 363.034 347.846 363.034 365.317C363.034 382.787 348.866 397.003 331.454 397.003ZM331.454 347.333C321.57 347.333 313.53 355.4 313.53 365.317C313.53 375.234 321.57 383.301 331.454 383.301C341.338 383.301 349.378 375.234 349.378 365.317C349.378 355.4 341.338 347.333 331.454 347.333Z" fill="black"/>
</g>
<defs>
<clipPath id="clip0_221_2521">
<rect width="397.362" height="400" fill="white"/>
</clipPath>
</defs>
</svg>
