<svg width="116" height="89" viewBox="0 0 116 89" fill="none" xmlns="http://www.w3.org/2000/svg">
<path d="M32.788 19.7H20.58V54H13.048V19.7H0.84V13.512H32.788V19.7ZM48.7756 36.332C48.7756 35.436 48.6449 34.596 48.3836 33.812C48.1409 33.0093 47.7676 32.3093 47.2636 31.712C46.7596 31.1147 46.1156 30.648 45.3316 30.312C44.5662 29.9573 43.6702 29.78 42.6436 29.78C40.6462 29.78 39.0689 30.3493 37.9116 31.488C36.7729 32.6267 36.0449 34.2413 35.7276 36.332H48.7756ZM35.5876 40.504C35.6996 41.9787 35.9609 43.2573 36.3716 44.34C36.7822 45.404 37.3236 46.2907 37.9956 47C38.6676 47.6907 39.4609 48.2133 40.3756 48.568C41.3089 48.904 42.3356 49.072 43.4556 49.072C44.5756 49.072 45.5369 48.9413 46.3396 48.68C47.1609 48.4187 47.8702 48.1293 48.4676 47.812C49.0836 47.4947 49.6156 47.2053 50.0636 46.944C50.5302 46.6827 50.9782 46.552 51.4076 46.552C51.9862 46.552 52.4156 46.7667 52.6956 47.196L54.6836 49.716C53.9182 50.612 53.0596 51.368 52.1076 51.984C51.1556 52.5813 50.1569 53.0667 49.1116 53.44C48.0849 53.7947 47.0302 54.0467 45.9476 54.196C44.8836 54.3453 43.8476 54.42 42.8396 54.42C40.8422 54.42 38.9849 54.0933 37.2676 53.44C35.5502 52.768 34.0569 51.788 32.7876 50.5C31.5182 49.1933 30.5196 47.588 29.7916 45.684C29.0636 43.7613 28.6996 41.54 28.6996 39.02C28.6996 37.06 29.0169 35.2213 29.6516 33.504C30.2862 31.768 31.1916 30.2653 32.3676 28.996C33.5622 27.708 35.0089 26.6907 36.7076 25.944C38.4249 25.1973 40.3569 24.824 42.5036 24.824C44.3142 24.824 45.9849 25.1133 47.5156 25.692C49.0462 26.2707 50.3622 27.12 51.4636 28.24C52.5649 29.3413 53.4236 30.704 54.0396 32.328C54.6742 33.9333 54.9916 35.772 54.9916 37.844C54.9916 38.8893 54.8796 39.5987 54.6556 39.972C54.4316 40.3267 54.0022 40.504 53.3676 40.504H35.5876ZM80.7616 31.348C80.5563 31.6093 80.351 31.8147 80.1456 31.964C79.959 32.1133 79.679 32.188 79.3056 32.188C78.951 32.188 78.6056 32.0853 78.2696 31.88C77.9336 31.656 77.5323 31.4133 77.0656 31.152C76.599 30.872 76.039 30.6293 75.3856 30.424C74.751 30.2 73.9576 30.088 73.0056 30.088C71.7923 30.088 70.7283 30.312 69.8136 30.76C68.899 31.1893 68.1336 31.8147 67.5176 32.636C66.9203 33.4573 66.4723 34.456 66.1736 35.632C65.875 36.7893 65.7256 38.1053 65.7256 39.58C65.7256 41.1107 65.8843 42.4733 66.2016 43.668C66.5376 44.8627 67.0136 45.8707 67.6296 46.692C68.2456 47.4947 68.9923 48.1107 69.8696 48.54C70.747 48.9507 71.7363 49.156 72.8376 49.156C73.939 49.156 74.8256 49.0253 75.4976 48.764C76.1883 48.484 76.767 48.1853 77.2336 47.868C77.7003 47.532 78.1016 47.2333 78.4376 46.972C78.7923 46.692 79.1843 46.552 79.6136 46.552C80.1736 46.552 80.5936 46.7667 80.8736 47.196L82.8616 49.716C82.0963 50.612 81.2656 51.368 80.3696 51.984C79.4736 52.5813 78.5403 53.0667 77.5696 53.44C76.6176 53.7947 75.6283 54.0467 74.6016 54.196C73.5936 54.3453 72.5856 54.42 71.5776 54.42C69.8043 54.42 68.1336 54.0933 66.5656 53.44C64.9976 52.768 63.6256 51.7973 62.4496 50.528C61.2736 49.2587 60.3403 47.7093 59.6496 45.88C58.9776 44.032 58.6416 41.932 58.6416 39.58C58.6416 37.4707 58.9403 35.52 59.5376 33.728C60.1536 31.9173 61.0496 30.3587 62.2256 29.052C63.4016 27.7267 64.8576 26.6907 66.5936 25.944C68.3296 25.1973 70.327 24.824 72.5856 24.824C74.7323 24.824 76.6083 25.1693 78.2136 25.86C79.8376 26.5507 81.2936 27.54 82.5816 28.828L80.7616 31.348ZM94.1133 28.352C95.2333 27.3067 96.4653 26.4573 97.8093 25.804C99.1533 25.1507 100.731 24.824 102.541 24.824C104.109 24.824 105.5 25.0947 106.713 25.636C107.927 26.1587 108.935 26.9053 109.737 27.876C110.559 28.828 111.175 29.976 111.585 31.32C112.015 32.6453 112.229 34.1107 112.229 35.716V54H105.313V35.716C105.313 33.9613 104.912 32.608 104.109 31.656C103.307 30.6853 102.084 30.2 100.441 30.2C99.2466 30.2 98.1266 30.4707 97.0813 31.012C96.0359 31.5533 95.0466 32.2907 94.1133 33.224V54H87.1973V12.392H94.1133V28.352Z" fill="#022750"/>
<path d="M64.968 67.784C64.8613 67.9547 64.7493 68.0773 64.632 68.152C64.5147 68.216 64.3653 68.248 64.184 68.248C63.992 68.248 63.784 68.1947 63.56 68.088C63.3467 67.9813 63.096 67.864 62.808 67.736C62.52 67.5973 62.1893 67.4747 61.816 67.368C61.4533 67.2613 61.0213 67.208 60.52 67.208C59.7413 67.208 59.128 67.3733 58.68 67.704C58.2427 68.0347 58.024 68.4667 58.024 69C58.024 69.352 58.136 69.6507 58.36 69.896C58.5947 70.1307 58.8987 70.3387 59.272 70.52C59.656 70.7013 60.088 70.8667 60.568 71.016C61.048 71.1547 61.5333 71.3093 62.024 71.48C62.5253 71.6507 63.016 71.848 63.496 72.072C63.976 72.2853 64.4027 72.5627 64.776 72.904C65.16 73.2347 65.464 73.6347 65.688 74.104C65.9227 74.5733 66.04 75.1387 66.04 75.8C66.04 76.5893 65.896 77.32 65.608 77.992C65.3307 78.6533 64.9147 79.2293 64.36 79.72C63.8053 80.2 63.1173 80.5787 62.296 80.856C61.4853 81.1227 60.5467 81.256 59.48 81.256C58.9147 81.256 58.36 81.2027 57.816 81.096C57.2827 81 56.7653 80.8613 56.264 80.68C55.7733 80.4987 55.3147 80.2853 54.888 80.04C54.472 79.7947 54.104 79.528 53.784 79.24L54.696 77.736C54.8133 77.5547 54.952 77.416 55.112 77.32C55.272 77.224 55.4747 77.176 55.72 77.176C55.9653 77.176 56.1947 77.2453 56.408 77.384C56.632 77.5227 56.888 77.672 57.176 77.832C57.464 77.992 57.8 78.1413 58.184 78.28C58.5787 78.4187 59.0747 78.488 59.672 78.488C60.1413 78.488 60.5413 78.4347 60.872 78.328C61.2133 78.2107 61.4907 78.0613 61.704 77.88C61.928 77.6987 62.088 77.4907 62.184 77.256C62.2907 77.0107 62.344 76.76 62.344 76.504C62.344 76.12 62.2267 75.8053 61.992 75.56C61.768 75.3147 61.464 75.1013 61.08 74.92C60.7067 74.7387 60.2747 74.5787 59.784 74.44C59.304 74.2907 58.808 74.1307 58.296 73.96C57.7947 73.7893 57.2987 73.592 56.808 73.368C56.328 73.1333 55.896 72.84 55.512 72.488C55.1387 72.136 54.8347 71.704 54.6 71.192C54.376 70.68 54.264 70.0613 54.264 69.336C54.264 68.664 54.3973 68.024 54.664 67.416C54.9307 66.808 55.32 66.28 55.832 65.832C56.3547 65.3733 57 65.0107 57.768 64.744C58.5467 64.4667 59.4427 64.328 60.456 64.328C61.5867 64.328 62.616 64.5147 63.544 64.888C64.472 65.2613 65.2453 65.752 65.864 66.36L64.968 67.784ZM74.4865 81.256C73.0572 81.256 71.9585 80.856 71.1905 80.056C70.4332 79.2453 70.0545 78.1307 70.0545 76.712V67.544H68.3745C68.1612 67.544 67.9798 67.4747 67.8305 67.336C67.6812 67.1973 67.6065 66.9893 67.6065 66.712V65.144L70.2465 64.712L71.0785 60.232C71.1318 60.0187 71.2332 59.8533 71.3825 59.736C71.5318 59.6187 71.7238 59.56 71.9585 59.56H74.0065V64.728H78.3905V67.544H74.0065V76.44C74.0065 76.952 74.1292 77.352 74.3745 77.64C74.6305 77.928 74.9772 78.072 75.4145 78.072C75.6598 78.072 75.8625 78.0453 76.0225 77.992C76.1932 77.928 76.3372 77.864 76.4545 77.8C76.5825 77.736 76.6945 77.6773 76.7905 77.624C76.8865 77.56 76.9825 77.528 77.0785 77.528C77.1958 77.528 77.2918 77.56 77.3665 77.624C77.4412 77.6773 77.5212 77.7627 77.6065 77.88L78.7905 79.8C78.2145 80.28 77.5532 80.6427 76.8065 80.888C76.0598 81.1333 75.2865 81.256 74.4865 81.256ZM88.0598 64.328C89.2758 64.328 90.3798 64.5253 91.3718 64.92C92.3744 65.3147 93.2278 65.8747 93.9318 66.6C94.6464 67.3253 95.1957 68.2107 95.5798 69.256C95.9638 70.3013 96.1558 71.4693 96.1558 72.76C96.1558 74.0613 95.9638 75.2347 95.5798 76.28C95.1957 77.3253 94.6464 78.216 93.9318 78.952C93.2278 79.688 92.3744 80.2533 91.3718 80.648C90.3798 81.0427 89.2758 81.24 88.0598 81.24C86.8331 81.24 85.7184 81.0427 84.7158 80.648C83.7131 80.2533 82.8544 79.688 82.1398 78.952C81.4358 78.216 80.8864 77.3253 80.4918 76.28C80.1078 75.2347 79.9158 74.0613 79.9158 72.76C79.9158 71.4693 80.1078 70.3013 80.4918 69.256C80.8864 68.2107 81.4358 67.3253 82.1398 66.6C82.8544 65.8747 83.7131 65.3147 84.7158 64.92C85.7184 64.5253 86.8331 64.328 88.0598 64.328ZM88.0598 78.2C89.4251 78.2 90.4331 77.7413 91.0838 76.824C91.7451 75.9067 92.0758 74.5627 92.0758 72.792C92.0758 71.0213 91.7451 69.672 91.0838 68.744C90.4331 67.816 89.4251 67.352 88.0598 67.352C86.6731 67.352 85.6438 67.8213 84.9718 68.76C84.3104 69.688 83.9798 71.032 83.9798 72.792C83.9798 74.552 84.3104 75.896 84.9718 76.824C85.6438 77.7413 86.6731 78.2 88.0598 78.2ZM103.123 76.744C103.571 77.288 104.056 77.672 104.579 77.896C105.112 78.12 105.688 78.232 106.307 78.232C106.904 78.232 107.443 78.12 107.923 77.896C108.403 77.672 108.808 77.3307 109.139 76.872C109.48 76.4133 109.741 75.8373 109.923 75.144C110.104 74.44 110.195 73.6133 110.195 72.664C110.195 71.704 110.115 70.8933 109.955 70.232C109.805 69.56 109.587 69.016 109.299 68.6C109.011 68.184 108.659 67.88 108.243 67.688C107.837 67.496 107.373 67.4 106.851 67.4C106.029 67.4 105.331 67.576 104.755 67.928C104.179 68.2693 103.635 68.7547 103.123 69.384V76.744ZM102.915 66.824C103.587 66.0667 104.349 65.4533 105.203 64.984C106.056 64.5147 107.059 64.28 108.211 64.28C109.107 64.28 109.923 64.4667 110.659 64.84C111.405 65.2133 112.045 65.7573 112.579 66.472C113.123 67.176 113.539 68.0507 113.827 69.096C114.125 70.1307 114.275 71.32 114.275 72.664C114.275 73.8907 114.109 75.0267 113.779 76.072C113.448 77.1173 112.973 78.024 112.355 78.792C111.747 79.56 111.005 80.1627 110.131 80.6C109.267 81.0267 108.296 81.24 107.219 81.24C106.301 81.24 105.517 81.1013 104.867 80.824C104.216 80.536 103.635 80.1413 103.123 79.64V86.36H99.1708V64.584H101.587C102.099 64.584 102.435 64.824 102.595 65.304L102.915 66.824Z" fill="#CC7E00"/>
</svg>
