<svg width="180" height="50" viewBox="0 0 180 50" fill="none" xmlns="http://www.w3.org/2000/svg">
<g clip-path="url(#clip0_1888_7295)">
<path d="M31.6366 28.7042C31.6354 28.7039 15.6959 24.958 15.6959 24.958C10.9449 23.8414 7.9646 18.9364 9.03943 14.0021C10.1149 9.06787 14.8381 5.97343 19.5891 7.08965C24.3404 8.20628 27.3204 13.1113 26.2455 18.0452C25.7069 20.5155 24.2538 22.5229 22.3407 23.7735C22.3404 23.7735 22.3358 23.7776 22.334 23.7785C22.2777 23.8205 22.2413 23.8887 22.2413 23.9655C22.2413 24.0731 22.3129 24.1636 22.4095 24.1877C22.4098 24.1881 29.5003 25.8532 29.5016 25.8532C29.6703 25.893 29.8455 25.8253 29.9492 25.6831C29.9497 25.6818 29.9495 25.6828 29.9495 25.6828C31.9029 22.9985 33.0762 19.6491 33.0762 16.0263C33.0762 7.4948 26.6579 0.522602 18.5622 0.0273972C18.4901 0.0232506 18.0513 0.0054512 17.9031 0.00325775C14.3187 -0.0551796 10.6844 1.01219 7.52404 3.31071C-0.45704 9.11419 -2.39614 20.5374 3.19157 28.8255L17.373 49.8587C17.4335 49.9444 17.5311 50 17.6405 50C17.7508 50 17.8486 49.9435 17.9089 49.8571C17.9089 49.8571 31.8347 29.2328 31.836 29.2309C31.8714 29.1763 31.8925 29.11 31.8925 29.0389C31.8925 28.8757 31.7834 28.7391 31.6366 28.7042Z" fill="#FABC26"/>
<path d="M45.2807 9.84875C45.4513 9.84875 45.5644 9.90743 45.621 10.0252L50.3495 18.4054H50.5758L54.5968 10.1424C54.6814 9.93636 54.8517 9.84875 55.0782 9.84875H57.9663C58.2213 9.84875 58.3624 10.1135 58.249 10.3189L49.9244 25.6102C49.8397 25.7864 49.67 25.875 49.4431 25.875H46.6117C46.3002 25.875 46.2721 25.669 46.3855 25.4337L48.622 21.4637L41.9399 10.231C41.8262 10.0252 41.9115 9.84875 42.1095 9.84875H45.2807Z" fill="#022750"/>
<path d="M63.2209 9.84875C63.4759 9.84875 63.6175 9.99537 63.6175 10.2602V16.5491L69.989 10.0836C70.1587 9.93636 70.4133 9.84875 70.7248 9.84875H74.1793C74.4342 9.84875 74.5195 10.0836 74.3208 10.2897L67.5531 16.8767L74.7458 25.4337C74.9439 25.6391 74.8311 25.875 74.5761 25.875H71.1782C70.8667 25.875 70.6404 25.7864 70.4698 25.5804L65.0815 18.9797L63.6175 20.3938V25.4629C63.6175 25.7277 63.4759 25.875 63.2209 25.875H60.7294C60.4744 25.875 60.3333 25.7277 60.3333 25.4629V10.2602C60.3333 9.99537 60.4744 9.84875 60.7294 9.84875H63.2209Z" fill="#022750"/>
<path d="M84.1351 18.3755C85.8623 18.3755 86.8531 17.2583 86.8531 15.6999C86.8531 14.1705 85.8623 13.0828 84.1351 13.0828H80.0287V18.3755H84.1351ZM84.1351 9.84777C87.5606 9.84777 90.1369 12.406 90.1369 15.6999C90.1369 19.1108 87.5606 21.6103 84.1351 21.6103H80.0287V25.4623C80.0287 25.7268 79.8871 25.874 79.6327 25.874H77.1404C76.8858 25.874 76.7439 25.7268 76.7439 25.4623V10.2595C76.7439 9.99472 76.8858 9.84777 77.1404 9.84777H84.1351Z" fill="#022750"/>
<path d="M105.615 9.84875C105.869 9.84875 106.011 9.99537 106.011 10.2602V25.4629C106.011 25.7277 105.869 25.875 105.615 25.875H103.122C102.868 25.875 102.726 25.7277 102.726 25.4629V13.0536H95.8735V25.4629C95.8735 25.7277 95.7318 25.875 95.4775 25.875H92.9857C92.7305 25.875 92.5889 25.7277 92.5889 25.4629V10.2602C92.5889 9.99537 92.7305 9.84875 92.9857 9.84875H105.615Z" fill="#022750"/>
<path d="M112.248 17.8755C112.248 20.7868 114.23 22.9034 117.061 22.9034C119.865 22.9034 121.848 20.7868 121.848 17.8755C121.848 14.9055 119.865 12.8178 117.061 12.8178C114.23 12.8178 112.248 14.9055 112.248 17.8755ZM117.061 9.61222C121.507 9.61222 125.16 13.1705 125.16 17.8755C125.16 22.6098 121.507 26.1094 117.061 26.1094C112.588 26.1094 108.935 22.6098 108.935 17.8755C108.935 13.1705 112.588 9.61222 117.061 9.61222Z" fill="#022750"/>
<path d="M136.154 22.6698V10.2598C136.154 9.99569 136.295 9.84875 136.551 9.84875H138.986C139.241 9.84875 139.383 9.99569 139.383 10.2598V22.6698H144.225V10.2598C144.225 9.99569 144.365 9.84875 144.621 9.84875H147.056C147.311 9.84875 147.452 9.99569 147.452 10.2598V25.4629C147.452 25.7277 147.311 25.875 147.056 25.875H128.481C128.283 25.875 128.084 25.7277 128.084 25.4629V10.2598C128.084 9.99569 128.225 9.84875 128.481 9.84875H130.915C131.171 9.84875 131.312 9.99569 131.312 10.2598V22.6698H136.154Z" fill="#022750"/>
<path d="M163.187 9.84875C163.441 9.84875 163.583 9.99537 163.583 10.2602V12.6714C163.583 12.9362 163.441 13.0829 163.187 13.0829H158.26V25.4629C158.26 25.7277 158.117 25.875 157.863 25.875H155.371C155.117 25.875 154.975 25.7277 154.975 25.4629V13.0829H150.048C149.794 13.0829 149.651 12.9362 149.651 12.6714V10.2602C149.651 9.99537 149.794 9.84875 150.048 9.84875H163.187Z" fill="#022750"/>
<path d="M168.79 19.6109H174.17L171.678 13.0241H171.367L168.79 19.6109ZM175.303 22.6983H167.6L166.525 25.521C166.44 25.7566 166.271 25.874 166.044 25.874H163.24C162.958 25.874 162.873 25.7268 162.958 25.4623L169.64 10.0833C169.696 9.93604 169.81 9.84777 170.008 9.84777H173.236C173.434 9.84777 173.547 9.93604 173.604 10.0833L179.975 25.4032C180.06 25.6391 179.919 25.874 179.663 25.874H176.974C176.691 25.874 176.492 25.7268 176.379 25.4623L175.303 22.6983Z" fill="#022750"/>
<path d="M44.1199 39.6152V32.7523H48.4677V33.5428H44.9933V39.6152H44.1199Z" fill="#617171"/>
<path d="M50.6092 36.1734C50.6092 37.8893 51.5101 38.9977 52.9129 38.9977C54.2972 38.9977 55.1981 37.8792 55.1981 36.1734C55.1981 34.4771 54.2972 33.3783 52.8943 33.3783C51.3337 33.3783 50.6092 34.7082 50.6092 36.1734ZM56.0719 36.1251C56.0719 38.1402 55.0034 39.7783 52.9038 39.7783C50.7859 39.7783 49.7361 38.1011 49.7361 36.1058C49.7361 33.9666 50.9714 32.5878 52.8943 32.5878C54.9474 32.5878 56.0719 34.0816 56.0719 36.1251Z" fill="#617171"/>
<path d="M62.9083 39.615H62.0352V33.5426H59.592L59.4621 37.4075C59.4156 38.7863 58.9322 39.7598 57.9292 39.7598C57.7431 39.7598 57.4646 39.6921 57.2974 39.6245V38.8534C57.4184 38.9308 57.6691 38.9502 57.7709 38.9502C58.2447 38.9502 58.589 38.68 58.6352 36.9352L58.7559 32.752H62.9083V39.615Z" fill="#617171"/>
<path d="M65.8422 36.1734C65.8422 37.8893 66.7432 38.9977 68.1461 38.9977C69.53 38.9977 70.4312 37.8792 70.4312 36.1734C70.4312 34.4771 69.53 33.3783 68.1274 33.3783C66.5668 33.3783 65.8422 34.7082 65.8422 36.1734ZM71.3043 36.1251C71.3043 38.1402 70.2365 39.7783 68.1369 39.7783C66.0186 39.7783 64.9685 38.1011 64.9685 36.1058C64.9685 33.9666 66.2045 32.5878 68.1274 32.5878C70.1805 32.5878 71.3043 34.0816 71.3043 36.1251Z" fill="#617171"/>
<path d="M74.2143 38.8536H75.9611C76.8434 38.8536 77.7073 38.7962 77.7073 37.5913C77.7073 36.396 76.6948 36.4055 75.8126 36.4055H74.2143V38.8536ZM74.2143 35.6921H75.7844C76.5276 35.6921 77.4196 35.6343 77.4196 34.6032C77.4196 33.5713 76.6481 33.5235 75.8682 33.5235H74.2143V35.6921ZM76.184 32.7523C77.2803 32.7523 78.2923 33.2056 78.2923 34.468C78.2923 35.1425 77.9118 35.7213 77.3172 35.9426C78.1347 36.136 78.5896 36.7715 78.5896 37.678C78.5896 39.2587 77.3451 39.6152 76.0819 39.6152H73.3599V32.7523H76.184Z" fill="#617171"/>
<path d="M85.9156 39.6152H85.0422V36.4055H81.5494V39.6152H80.676V32.7523H81.5494V35.6147H85.0422V32.7523H85.9156V39.6152Z" fill="#617171"/>
<path d="M90.7929 33.6196L89.6503 36.7913H91.9175L90.7929 33.6196ZM93.8865 39.6152H92.9114L92.1773 37.5141H89.3998L88.6478 39.6152H87.718L90.3194 32.7523H91.3039L93.8865 39.6152Z" fill="#617171"/>
<path d="M104.654 39.6152H103.781V33.5428H100.288V39.6152H99.4148V32.7523H104.654V39.6152Z" fill="#617171"/>
<path d="M107.596 36.1734C107.596 37.8893 108.497 38.9977 109.9 38.9977C111.284 38.9977 112.185 37.8792 112.185 36.1734C112.185 34.4771 111.284 33.3783 109.882 33.3783C108.32 33.3783 107.596 34.7082 107.596 36.1734ZM113.058 36.1251C113.058 38.1402 111.99 39.7783 109.891 39.7783C107.772 39.7783 106.723 38.1011 106.723 36.1058C106.723 33.9666 107.958 32.5878 109.882 32.5878C111.934 32.5878 113.058 34.0816 113.058 36.1251Z" fill="#617171"/>
<path d="M115.114 32.7523H115.987V38.825H118.923V32.7523H119.796V38.825H122.731V32.7523H123.605V39.6152H115.114V32.7523Z" fill="#617171"/>
<path d="M130.777 33.5428H128.557V39.6152H127.683V33.5428H125.463V32.7523H130.777V33.5428Z" fill="#617171"/>
<path d="M134.159 33.6196L133.017 36.7913H135.283L134.159 33.6196ZM137.253 39.6152H136.277L135.543 37.5141H132.766L132.013 39.6152H131.084L133.685 32.7523H134.67L137.253 39.6152Z" fill="#617171"/>
<path d="M145.363 35.5093L148.261 39.6152H147.147L144.75 36.1258L143.654 37.2059V39.6152H142.781V32.7523H143.654V36.155L147.008 32.7523H148.15L145.363 35.5093Z" fill="#617171"/>
<path d="M150.979 36.0392H152.66C153.506 36.0392 154.156 35.7982 154.156 34.7864C154.156 33.6872 153.403 33.533 152.539 33.533H150.979V36.0392ZM152.827 32.7523C154.091 32.7523 155.029 33.3015 155.029 34.7283C155.029 36.2804 154.063 36.8008 152.772 36.8008H150.979V39.6152H150.105V32.7523H152.827Z" fill="#617171"/>
<path d="M158.893 33.6196L157.75 36.7913H160.017L158.893 33.6196ZM161.987 39.6152H161.012L160.277 37.5141H157.5L156.747 39.6152H155.818L158.419 32.7523H159.404L161.987 39.6152Z" fill="#617171"/>
<path d="M165.54 32.1643H164.704V31.1909H165.54V32.1643ZM164.676 39.6152H163.803V32.7523H164.676V39.6152ZM163.784 32.1643H162.948V31.1909H163.784V32.1643Z" fill="#617171"/>
<path d="M172.332 39.6152H171.459V36.4055H167.967V39.6152H167.093V32.7523H167.967V35.6147H171.459V32.7523H172.332V39.6152Z" fill="#617171"/>
<path d="M174.736 32.7523H175.609V38.5647H175.627L178.87 32.7523H179.975V39.6152H179.102V33.7835H179.083L175.832 39.6152H174.736V32.7523Z" fill="#617171"/>
</g>
<defs>
<clipPath id="clip0_1888_7295">
<rect width="180" height="50" fill="white"/>
</clipPath>
</defs>
</svg>
