<svg width="24.000000" height="24.000000" viewBox="0 0 24 24" fill="none" xmlns="http://www.w3.org/2000/svg" xmlns:xlink="http://www.w3.org/1999/xlink">
	<desc>
			Created with Pixso.
	</desc>
	<defs>
		<clipPath id="clip3_4525">
			<rect id="Icon Left" width="24.000000" height="24.000000" fill="white" fill-opacity="0"/>
		</clipPath>
	</defs>
	<rect id="Icon Left" width="24.000000" height="24.000000" fill="#FFFFFF" fill-opacity="0"/>
	<g clip-path="url(#clip3_4525)">
		<path id="Vector" d="M7 22C6.45 22 5.97 21.8 5.58 21.41C5.19 21.02 5 20.55 5 20C5 19.45 5.19 18.97 5.58 18.58C5.97 18.19 6.45 18 7 18C7.54 18 8.02 18.19 8.41 18.58C8.8 18.97 9 19.45 9 20C9 20.55 8.8 21.02 8.41 21.41C8.02 21.8 7.54 22 7 22ZM17 22C16.45 22 15.97 21.8 15.58 21.41C15.19 21.02 15 20.55 15 20C15 19.45 15.19 18.97 15.58 18.58C15.97 18.19 16.45 18 17 18C17.54 18 18.02 18.19 18.41 18.58C18.8 18.97 19 19.45 19 20C19 20.55 18.8 21.02 18.41 21.41C18.02 21.8 17.54 22 17 22ZM6.15 6L8.54 11L15.55 11L18.29 6L6.15 6ZM5.2 4L19.95 4C20.33 4 20.62 4.17 20.82 4.51C21.02 4.85 21.03 5.19 20.85 5.55L17.29 11.95C17.11 12.28 16.87 12.54 16.56 12.72C16.25 12.9 15.91 13 15.55 13L8.09 13L7 15L19 15L19 17L7 17C6.25 17 5.68 16.67 5.29 16.01C4.91 15.35 4.9 14.7 5.25 14.05L6.59 11.6L3 4L1 4L1 2L4.25 2L5.2 4Z" fill="#FFFFFF" fill-opacity="1.000000" fill-rule="nonzero"/>
	</g>
</svg>
