<svg width="24.000000" height="24.000000" viewBox="0 0 24 24" fill="none" xmlns="http://www.w3.org/2000/svg" xmlns:xlink="http://www.w3.org/1999/xlink">
	<desc>
			Created with Pixso.
	</desc>
	<defs>
		<clipPath id="clip24_4405">
			<rect id="CommentOutlined" width="24.000000" height="24.000000" fill="white" fill-opacity="0"/>
		</clipPath>
	</defs>
	<rect id="CommentOutlined" width="24.000000" height="24.000000" fill="#FFFFFF" fill-opacity="0"/>
	<g clip-path="url(#clip24_4405)">
		<path id="Vector" d="M21.99 4C21.99 2.9 21.1 2 20 2L4 2C2.9 2 2 2.9 2 4L2 16C2 17.1 2.9 18 4 18L18 18L22 22L21.99 4ZM20 4L20 17.17L18.83 16L4 16L4 4L20 4ZM6 12L18 12L18 14L6 14L6 12ZM6 9L18 9L18 11L6 11L6 9ZM6 6L18 6L18 8L6 8L6 6Z" fill="#CC7E00" fill-opacity="1.000000" fill-rule="nonzero"/>
	</g>
</svg>
