<svg width="24" height="24" viewBox="0 0 24 24" fill="none" xmlns="http://www.w3.org/2000/svg">
<mask id="path-1-inside-1_5003_10431" fill="white">
<path fill-rule="evenodd" clip-rule="evenodd" d="M12 11.9999V1.41174H12.7719C18.9791 1.44727 24.0001 6.49017 24.0001 12.7058C24.0001 18.9434 18.9435 24 12.7059 24C6.48683 24 1.4418 18.9735 1.4118 12.7615V11.9999H12Z"/>
</mask>
<path d="M12 1.41174V0.411743H11V1.41174H12ZM12 11.9999V12.9999H13V11.9999H12ZM12.7719 1.41174L12.7776 0.411743H12.7719V1.41174ZM1.4118 12.7615L0.411793 12.7615L0.411816 12.7663L1.4118 12.7615ZM1.4118 11.9999V10.9999H0.411804V11.9999H1.4118ZM11 1.41174V11.9999H13V1.41174H11ZM12.7719 0.411743H12V2.41174H12.7719V0.411743ZM25.0001 12.7058C25.0001 5.93981 19.5346 0.450428 12.7776 0.41176L12.7661 2.41173C18.4237 2.4441 23.0001 7.04053 23.0001 12.7058H25.0001ZM12.7059 25C19.4958 25 25.0001 19.4957 25.0001 12.7058H23.0001C23.0001 18.3911 18.3912 23 12.7059 23V25ZM0.411816 12.7663C0.44447 19.5284 5.93616 25 12.7059 25V23C7.0375 23 2.43913 18.4185 2.41179 12.7567L0.411816 12.7663ZM0.411804 11.9999V12.7615H2.4118V11.9999H0.411804ZM12 10.9999H1.4118V12.9999H12V10.9999Z" fill="white" mask="url(#path-1-inside-1_5003_10431)"/>
<path fill-rule="evenodd" clip-rule="evenodd" d="M11.2942 11.2942V0C5.05658 0 0 5.0566 0 11.2942H11.2942Z" fill="white"/>
</svg>
