<svg width="25.000000" height="25.000000" viewBox="0 0 25 25" fill="none" xmlns="http://www.w3.org/2000/svg" xmlns:xlink="http://www.w3.org/1999/xlink">
	<desc>
			Created with Pixso.
	</desc>
	<defs/>
	<mask id="mask_2_4534" fill="white">
		<path id="Subtract" d="M11.9999 1.41174L11.9999 0.411743L10.9999 0.411743L10.9999 1.41174L11.9999 1.41174ZM11.9999 12L11.9999 13L12.9999 13L12.9999 12L11.9999 12ZM12.7718 1.41174L12.7775 0.411743L12.7718 0.411743L12.7718 1.41174ZM1.41174 12.7615L0.411743 12.7615L0.411743 12.7664L1.41174 12.7615ZM1.41174 12L1.41174 11L0.411743 11L0.411743 12L1.41174 12ZM10.9999 1.41174L10.9999 12L12.9999 12L12.9999 1.41174L10.9999 1.41174ZM12.7718 0.411743L11.9999 0.411743L11.9999 2.41174L12.7718 2.41174L12.7718 0.411743ZM25 12.7058C25 5.93982 19.5345 0.450439 12.7775 0.411743L12.7661 2.41174C18.4236 2.44409 23 7.04053 23 12.7058L25 12.7058ZM12.7058 25C19.4957 25 25 19.4957 25 12.7058L23 12.7058C23 18.3911 18.3911 23 12.7058 23L12.7058 25ZM0.411743 12.7664C0.444397 19.5284 5.9361 25 12.7058 25L12.7058 23C7.03745 23 2.43906 18.4186 2.41174 12.7567L0.411743 12.7664ZM0.411743 12L0.411743 12.7615L2.41174 12.7615L2.41174 12L0.411743 12ZM11.9999 11L1.41174 11L1.41174 13L11.9999 13L11.9999 11Z" fill="" fill-opacity="1.000000" fill-rule="nonzero"/>
	</mask>
	<path id="Subtract" d="M24.9599 11.7058C24.9865 12.0356 25 12.3691 25 12.7058C25 13.0425 24.9865 13.376 24.9599 13.7058C24.4775 19.6982 19.6982 24.4775 13.7058 24.9599C13.376 24.9865 13.0425 25 12.7058 25C12.3691 25 12.0356 24.9865 11.7058 24.9599C5.81182 24.4855 1.09137 19.854 0.478911 14C0.470778 13.9223 0.46337 13.8443 0.456693 13.7662L0.456688 13.7661L0.456293 13.7615C0.434883 13.5097 0.421059 13.2558 0.41505 13C0.413229 12.9225 0.412126 12.8448 0.411746 12.7669L0.411743 12.7664L1.40933 12.7615L1.41174 12.7615L1.41174 12.7615L1.40933 12.7615L0.411743 12.7664L0.411743 11L10.9999 11L10.9999 0.411743L12.7775 0.411743L12.7778 0.411745C12.852 0.412171 12.926 0.413255 12.9999 0.414991C13.2593 0.421084 13.5167 0.435207 13.7718 0.457123L13.7773 0.457596L13.7773 0.457598C13.8517 0.464022 13.9259 0.47111 13.9999 0.478854C19.854 1.09133 24.4855 5.81179 24.9599 11.7058ZM22.9521 11.7058C22.4904 6.91718 18.7481 3.08763 13.9999 2.49212C13.9241 2.48261 13.8481 2.47393 13.7718 2.46608C13.5171 2.43989 13.2597 2.42297 12.9999 2.41569L12.9999 13L2.41574 13C2.42293 13.2563 2.43948 13.5102 2.46507 13.7615C2.4732 13.8413 2.48223 13.9208 2.49217 14C3.0877 18.7481 6.91724 22.4904 11.7058 22.9521C12.0349 22.9838 12.3684 23 12.7058 23C13.0432 23 13.3768 22.9838 13.7058 22.952C18.5928 22.4809 22.4809 18.5928 22.952 13.7058C22.9838 13.3768 23 13.0432 23 12.7058C23 12.3684 22.9838 12.0349 22.9521 11.7058Z" clip-rule="evenodd" fill="#FFFFFF" fill-opacity="1.000000" fill-rule="evenodd"/>
	<path id="Intersect" d="" fill="#FFFFFF" fill-opacity="1.000000" fill-rule="nonzero"/>
</svg>
