<svg width="24.000000" height="24.000000" viewBox="0 0 24 24" fill="none" xmlns="http://www.w3.org/2000/svg" xmlns:xlink="http://www.w3.org/1999/xlink">
	<desc>
			Created with Pixso.
	</desc>
	<defs>
		<clipPath id="clip2_4713">
			<rect id="Icon Left" width="24.000000" height="24.000000" fill="white" fill-opacity="0"/>
		</clipPath>
	</defs>
	<rect id="Icon Left" width="24.000000" height="24.000000" fill="#FFFFFF" fill-opacity="0"/>
	<g clip-path="url(#clip2_4713)">
		<path id="Vector" d="M12 21L10.55 19.7C8.86 18.18 7.47 16.87 6.37 15.77C5.27 14.67 4.39 13.68 3.75 12.81C3.1 11.93 2.64 11.13 2.38 10.4C2.12 9.66 2 8.91 2 8.15C2 6.58 2.52 5.27 3.57 4.22C4.62 3.17 5.93 2.65 7.5 2.65C8.36 2.65 9.19 2.83 9.97 3.2C10.75 3.56 11.43 4.08 12 4.75C12.56 4.08 13.24 3.56 14.02 3.2C14.8 2.83 15.63 2.65 16.5 2.65C18.06 2.65 19.37 3.17 20.42 4.22C21.47 5.27 22 6.58 22 8.15C22 8.91 21.87 9.66 21.61 10.4C21.35 11.13 20.9 11.93 20.25 12.81C19.6 13.68 18.72 14.67 17.62 15.77C16.52 16.87 15.13 18.18 13.45 19.7L12 21ZM12 18.29C13.6 16.86 14.91 15.63 15.95 14.61C16.98 13.58 17.79 12.69 18.4 11.93C19 11.17 19.41 10.5 19.65 9.91C19.88 9.32 20 8.73 20 8.15C20 7.15 19.66 6.31 19 5.65C18.33 4.98 17.5 4.65 16.5 4.65C15.71 4.65 14.99 4.87 14.32 5.31C13.65 5.75 13.2 6.31 12.95 7L11.05 7C10.8 6.31 10.34 5.75 9.67 5.31C9 4.87 8.28 4.65 7.5 4.65C6.5 4.65 5.66 4.98 5 5.65C4.33 6.31 4 7.15 4 8.15C4 8.73 4.11 9.32 4.35 9.91C4.58 10.5 5 11.17 5.6 11.93C6.2 12.69 7.01 13.58 8.05 14.61C9.08 15.63 10.4 16.86 12 18.29Z" fill="#022750" fill-opacity="1.000000" fill-rule="nonzero"/>
	</g>
</svg>
