<svg width="32.000000" height="33.000000" viewBox="0 0 32 33" fill="none" xmlns="http://www.w3.org/2000/svg" xmlns:xlink="http://www.w3.org/1999/xlink">
	<desc>
			Created with Pixso.
	</desc>
	<defs/>
	<mask id="mask_230_5569" fill="white">
		<path id="Subtract" d="M15.9999 16.2437L15.9999 1.91113L17.042 1.91113C25.3124 1.96631 31.9999 8.78979 31.9999 17.1991C31.9999 25.6426 25.2578 32.4874 16.941 32.4874C8.64307 32.4874 1.91272 25.6735 1.88232 17.2562L1.88232 16.2437L15.9999 16.2437Z" clip-rule="evenodd" fill="" fill-opacity="1.000000" fill-rule="evenodd"/>
	</mask>
	<path id="Subtract" d="M15.9999 15.2437L15.9999 16.2437L1.88232 16.2437L1.88232 17.2562C1.91272 25.6735 8.64307 32.4874 16.941 32.4874C25.2578 32.4874 31.9999 25.6426 31.9999 17.1991C31.9999 8.78979 25.3124 1.96631 17.042 1.91113L15.9999 1.91113L15.9999 15.2437ZM16.9999 2.91113L16.9999 17.2437L2.88232 17.2437L2.88232 17.2527Q2.89323 20.2857 3.98514 22.8603Q5.01916 25.2984 7.02258 27.3253Q9.13571 29.4633 11.695 30.503Q14.1181 31.4874 16.941 31.4874Q19.771 31.4874 22.1984 30.4989Q24.7622 29.4548 26.8768 27.3079Q28.8808 25.2733 29.9108 22.8285Q30.9999 20.2432 30.9999 17.1991Q30.9999 14.1677 29.9185 11.59Q28.8963 9.15322 26.9077 7.12183Q24.7981 4.96678 22.2356 3.9146Q19.8371 2.92978 17.042 2.91113L16.9999 2.91113Z" clip-rule="evenodd" fill="#000000" fill-opacity="1.000000" fill-rule="evenodd"/>
	<path id="Intersect" d="M0 15.2883C0 6.84485 6.74207 0 15.0588 0L15.0588 15.2883L0 15.2883Z" clip-rule="evenodd" fill="#262626" fill-opacity="1.000000" fill-rule="evenodd"/>
</svg>
