<svg width="140.000000" height="50.000000" viewBox="0 0 140 50" fill="none" xmlns="http://www.w3.org/2000/svg" xmlns:xlink="http://www.w3.org/1999/xlink">
	<desc>
			Created with Pixso.
	</desc>
	<defs>
		<clipPath id="clip960_8861">
			<rect id="Nova_Poshta_2014_logo 1" width="140.000000" height="50.000000" fill="white" fill-opacity="0"/>
		</clipPath>
	</defs>
	<rect id="Nova_Poshta_2014_logo 1" width="140.000000" height="50.000000" fill="#FFFFFF" fill-opacity="0"/>
	<g clip-path="url(#clip960_8861)">
		<path id="path3433" d="M61.28 8.48C61.28 8.48 61.28 8.48 64.22 8.48C65.3 8.48 65.84 9.01 65.84 10.2C65.84 10.2 65.84 10.2 65.84 14.44C65.84 14.44 65.84 14.44 71.61 14.44C71.61 14.44 71.61 14.44 71.61 10.2C71.61 9.01 72.14 8.48 73.35 8.48C73.35 8.48 73.35 8.48 76.16 8.48C76.16 8.48 76.16 8.48 76.16 11.26C76.16 11.26 76.16 11.26 74.96 11.26L74.83 11.4C74.83 11.4 74.83 11.4 74.83 23.34C74.83 23.34 74.83 23.34 71.61 23.34C71.61 23.34 71.61 23.34 71.61 17.37C71.61 17.37 71.61 17.37 65.84 17.37C65.84 17.37 65.84 17.37 65.84 23.34C65.84 23.34 65.84 23.34 62.62 23.34C62.62 23.34 62.62 23.34 62.62 11.4C62.62 11.4 62.62 11.26 62.48 11.26C62.48 11.26 62.48 11.26 61.28 11.26C61.28 11.26 61.28 11.26 61.28 8.48Z" fill="#ED1C24" fill-opacity="1.000000" fill-rule="evenodd"/>
		<path id="path3435" d="M84.61 8.21L84.68 8.22L84.68 11.28L84.61 11.26C82.2 11.26 80.32 13.26 80.32 15.78C80.32 18.43 82.2 20.55 84.61 20.55L84.68 20.53L84.68 23.59L84.61 23.6C80.32 23.6 76.83 20.16 76.83 15.78C76.83 11.53 80.32 8.21 84.61 8.21Z" fill="#ED1C24" fill-opacity="1.000000" fill-rule="evenodd"/>
		<path id="path3437" d="M84.68 8.22L86.18 8.36C89.72 9.06 92.39 12.06 92.39 15.78C92.39 19.6 89.72 22.73 86.18 23.44L84.68 23.59L84.68 20.53L86.32 20.18C87.9 19.46 89.04 17.76 89.04 15.78C89.04 13.88 87.9 12.29 86.32 11.62L84.68 11.28L84.68 8.22Z" fill="#ED1C24" fill-opacity="1.000000" fill-rule="evenodd"/>
		<path id="path3439" d="M93.06 8.48C93.06 8.48 93.06 8.48 97.55 8.48L99.7 8.48L99.7 11.26L99.5 11.26C99.23 11.26 98.69 11.26 97.62 11.26C97.62 11.26 97.62 11.26 97.62 14.32C97.62 14.32 97.62 14.32 98.53 14.32L99.7 14.32L99.7 16.97L99.01 16.97C98.67 16.97 98.22 16.97 97.62 16.97C97.62 16.97 97.62 16.97 97.62 20.28C97.62 20.42 97.62 20.42 97.75 20.42C97.75 20.42 97.75 20.42 98.71 20.42L99.7 20.42L99.7 23.34L99.42 23.34C98.93 23.34 97.96 23.34 96.01 23.34C94.94 23.34 94.41 22.81 94.41 21.61L94.41 11.26C94.41 11.26 94.41 11.26 93.06 11.26C93.06 11.26 93.06 11.26 93.06 8.48Z" fill="#ED1C24" fill-opacity="1.000000" fill-rule="evenodd"/>
		<path id="path3441" d="M99.7 8.48L99.76 8.48C102.72 8.48 104.46 10.07 104.46 12.46C104.46 13.91 103.79 14.85 103.12 15.51C104.33 16.04 105.13 17.37 105.13 18.82C105.13 21.61 102.98 23.34 99.9 23.34C99.9 23.34 99.9 23.34 99.84 23.34L99.7 23.34L99.7 20.42L100.03 20.42C101.1 20.42 101.78 19.75 101.78 18.69C101.78 17.63 101.1 16.97 100.03 16.97C100.03 16.97 100.03 16.97 99.73 16.97L99.7 16.97L99.7 14.32L99.76 14.32C100.71 14.32 101.24 13.65 101.24 12.73C101.24 11.79 100.71 11.26 99.76 11.26C99.76 11.26 99.76 11.26 99.73 11.26L99.7 11.26L99.7 8.48Z" fill="#ED1C24" fill-opacity="1.000000" fill-rule="evenodd"/>
		<path id="path3443" d="M111.3 8.48C111.3 8.48 111.3 8.48 112.65 8.48L112.9 8.48L112.9 12.73C112.78 12.99 112.64 13.38 112.64 13.79C112.64 13.79 112.64 13.79 111.57 16.84C111.57 16.84 111.57 16.84 112.7 16.84L112.9 16.84L112.9 19.62L112.18 19.62C111.77 19.62 111.3 19.62 110.77 19.62C110.77 19.62 110.77 19.62 109.82 22.01C109.56 22.93 109.02 23.34 107.95 23.34C107.95 23.34 107.95 23.34 105.93 23.34C105.93 23.34 105.93 23.34 105.93 20.42C105.93 20.42 105.93 20.42 106.6 20.42C106.88 20.42 106.88 20.42 107.01 20.28C107.01 20.28 107.01 20.28 111.3 8.48Z" fill="#ED1C24" fill-opacity="1.000000" fill-rule="evenodd"/>
		<path id="path3445" d="M112.9 8.48L114.52 8.48C114.52 8.48 114.52 8.48 118.81 20.28C118.94 20.42 118.94 20.42 119.21 20.42C119.21 20.42 119.21 20.42 119.75 20.42C119.75 20.42 119.75 20.42 119.75 23.34C119.75 23.34 119.75 23.34 117.87 23.34C116.79 23.34 116.26 22.93 115.99 21.87C115.99 21.87 115.99 21.87 115.05 19.62C115.05 19.62 115.05 19.62 113.24 19.62L112.9 19.62L112.9 16.84L114.24 16.84C114.24 16.84 114.24 16.84 113.18 13.79C113.18 13.38 113.04 12.99 112.9 12.73L112.9 8.48Z" fill="#ED1C24" fill-opacity="1.000000" fill-rule="evenodd"/>
		<path id="path3447" d="M61.28 27.58C61.28 27.58 61.28 27.58 72.95 27.58C74.02 27.58 74.69 28.11 74.69 29.3C74.69 29.3 74.69 29.3 74.69 39.38C74.69 39.51 74.69 39.51 74.83 39.51C74.83 39.51 74.83 39.51 75.9 39.51C75.9 39.51 75.9 39.51 75.9 42.44C75.9 42.44 75.9 42.44 73.08 42.44C71.87 42.44 71.34 41.91 71.34 40.71C71.34 40.71 71.34 40.71 71.34 30.5C71.34 30.5 71.34 30.36 71.2 30.36C71.2 30.36 71.2 30.36 65.84 30.36C65.84 30.36 65.84 30.36 65.84 42.44C65.84 42.44 65.84 42.44 62.62 42.44C62.62 42.44 62.62 42.44 62.62 30.36C62.62 30.36 62.62 30.36 61.28 30.36C61.28 30.36 61.28 30.36 61.28 27.58Z" fill="#ED1C24" fill-opacity="1.000000" fill-rule="evenodd"/>
		<path id="path3449" d="M84.35 27.31L84.41 27.32L84.41 30.38L84.35 30.36C81.92 30.36 80.05 32.36 80.05 34.88C80.05 37.53 81.92 39.65 84.35 39.65L84.41 39.63L84.41 42.69L84.35 42.7C80.05 42.7 76.7 39.25 76.7 34.88C76.7 30.63 80.05 27.31 84.35 27.31Z" fill="#ED1C24" fill-opacity="1.000000" fill-rule="evenodd"/>
		<path id="path3451" d="M84.41 27.32L85.95 27.46C89.56 28.16 92.12 31.16 92.12 34.88C92.12 38.7 89.56 41.83 85.95 42.54L84.41 42.69L84.41 39.63L86.11 39.28C87.72 38.56 88.77 36.86 88.77 34.88C88.77 32.98 87.72 31.39 86.11 30.72L84.41 30.38L84.41 27.32Z" fill="#ED1C24" fill-opacity="1.000000" fill-rule="evenodd"/>
		<path id="path3453" d="M92.79 27.58C92.79 27.58 92.79 27.58 95.74 27.58C96.82 27.58 97.35 28.11 97.35 29.3C97.35 29.3 97.35 29.3 97.35 39.38C97.35 39.51 97.35 39.51 97.49 39.51C97.49 39.51 97.49 39.51 101.38 39.51C101.38 39.51 101.38 39.51 101.38 27.58C101.38 27.58 101.38 27.58 104.6 27.58C104.6 27.58 104.6 27.58 104.6 39.51C104.6 39.51 104.6 39.51 108.48 39.51C108.62 39.51 108.62 39.51 108.62 39.38C108.62 39.38 108.62 39.38 108.62 29.3C108.62 28.11 109.15 27.58 110.23 27.58C110.23 27.58 110.23 27.58 113.18 27.58C113.18 27.58 113.18 27.58 113.18 30.36C113.18 30.36 113.18 30.36 111.97 30.36C111.83 30.36 111.83 30.5 111.83 30.5C111.83 30.5 111.83 30.5 111.83 40.71C111.83 41.91 111.3 42.44 110.23 42.44C110.23 42.44 110.23 42.44 95.87 42.44C94.67 42.44 94.13 41.91 94.13 40.71C94.13 40.71 94.13 40.71 94.13 30.5C94.13 30.5 94.13 30.36 94 30.36C94 30.36 94 30.36 92.79 30.36C92.79 30.36 92.79 30.36 92.79 27.58Z" fill="#ED1C24" fill-opacity="1.000000" fill-rule="evenodd"/>
		<path id="path3455" d="M115.72 27.58C115.72 27.58 115.72 27.58 125.78 27.58C126.99 27.58 127.39 28.11 127.39 29.17C127.39 29.17 127.39 29.17 127.39 31.69L124.44 31.69C124.44 31.69 124.44 31.69 124.44 30.5C124.44 30.36 124.44 30.36 124.3 30.36C124.3 30.36 124.3 30.36 122.43 30.36C122.43 30.36 122.43 30.36 122.43 42.44C122.43 42.44 122.43 42.44 119.21 42.44C119.21 42.44 119.21 42.44 119.21 30.36C119.21 30.36 119.21 30.36 117.33 30.36C117.2 30.36 117.2 30.36 117.2 30.5C117.2 30.5 117.2 30.5 117.2 31.69C117.2 31.69 117.2 31.69 114.24 31.69C114.24 31.69 114.24 31.69 114.24 29.17C114.24 28.11 114.65 27.58 115.72 27.58Z" fill="#ED1C24" fill-opacity="1.000000" fill-rule="evenodd"/>
		<path id="path3457" d="M131.55 27.58C131.55 27.58 131.55 27.58 132.9 27.58L133.15 27.58L133.15 31.83C133.02 32.09 132.89 32.49 132.89 32.89C132.89 32.89 132.89 32.89 131.82 35.94C131.82 35.94 131.82 35.94 132.94 35.94L133.15 35.94L133.15 38.72L132.43 38.72C132.02 38.72 131.55 38.72 131.01 38.72C131.01 38.72 131.01 38.72 130.07 40.98C129.81 42.04 129.27 42.44 128.19 42.44C128.19 42.44 128.19 42.44 126.18 42.44C126.18 42.44 126.18 42.44 126.18 39.51C126.18 39.51 126.18 39.51 126.85 39.51C127.13 39.51 127.13 39.51 127.26 39.38C127.26 39.38 127.26 39.38 131.55 27.58Z" fill="#ED1C24" fill-opacity="1.000000" fill-rule="evenodd"/>
		<path id="path3459" d="M133.15 27.58L134.76 27.58C134.76 27.58 134.76 27.58 139.06 39.38C139.19 39.51 139.19 39.51 139.46 39.51L140 39.51C140 39.51 140 39.51 140 42.44C140 42.44 140 42.44 138.12 42.44C137.04 42.44 136.51 42.04 136.24 40.98C136.24 40.98 136.24 40.98 135.3 38.72C135.3 38.72 135.3 38.72 133.49 38.72L133.15 38.72L133.15 35.94L134.49 35.94C134.49 35.94 134.49 35.94 133.42 32.89C133.42 32.49 133.29 32.09 133.15 31.83L133.15 27.58Z" fill="#ED1C24" fill-opacity="1.000000" fill-rule="evenodd"/>
		<path id="path3461" d="M40.61 14.8C40.76 14.75 40.97 14.85 41.17 15.11C41.17 15.11 41.17 15.11 50.28 24C50.82 24.53 50.82 25.33 50.28 25.72C50.28 25.72 50.28 25.72 41.17 34.74C40.97 35.01 40.76 35.07 40.61 34.99C40.46 34.91 40.36 34.68 40.36 34.34L40.36 15.38C40.36 15.05 40.46 14.85 40.61 14.8Z" fill="#ED1C24" fill-opacity="1.000000" fill-rule="evenodd"/>
		<path id="path3463" d="M25.02 0L25.66 0L26.28 0.25C26.28 0.25 26.28 0.25 35.67 9.54C36.07 10.07 35.93 10.47 35.26 10.47C35.26 10.47 35.26 10.47 31.37 10.47C30.7 10.47 30.17 11 30.17 11.67C30.17 11.67 30.17 11.67 30.17 18.56C30.17 19.22 29.63 19.75 28.82 19.75C28.82 19.75 28.82 19.75 21.99 19.75C21.32 19.75 20.78 19.22 20.78 18.56C20.78 18.56 20.78 18.56 20.78 11.67C20.78 11 20.25 10.47 19.57 10.47L15.42 10.47C14.75 10.47 14.61 10.07 15.01 9.54C15.01 9.54 15.01 9.54 24.4 0.25L25.02 0Z" fill="#ED1C24" fill-opacity="1.000000" fill-rule="evenodd"/>
		<path id="path3465" d="M10.32 14.6C10.49 14.68 10.59 14.91 10.59 15.25L10.59 34.61C10.59 34.94 10.49 35.14 10.32 35.21C10.16 35.27 9.92 35.21 9.65 35.01C9.65 35.01 9.65 35.01 0.39 25.72C-0.14 25.33 -0.14 24.53 0.39 24C0.39 24 0.39 24 9.65 14.85C9.92 14.58 10.16 14.52 10.32 14.6Z" fill="#ED1C24" fill-opacity="1.000000" fill-rule="evenodd"/>
		<path id="path3467" d="M21.99 29.83C21.99 29.83 21.99 29.83 28.82 29.83C29.63 29.83 30.17 30.36 30.17 31.03C30.17 31.03 30.17 31.03 30.17 38.32C30.17 39.12 30.7 39.65 31.37 39.65L35 39.65C35.67 39.65 35.93 40.04 35.4 40.44C35.4 40.44 35.4 40.44 26.28 49.59C26.01 49.86 25.68 50 25.34 50C25.01 50 24.67 49.86 24.4 49.59C24.4 49.59 24.4 49.59 15.29 40.44C14.75 40.04 15.01 39.65 15.68 39.65C15.68 39.65 15.68 39.65 19.57 39.65C20.25 39.65 20.78 39.12 20.78 38.32C20.78 38.32 20.78 38.32 20.78 31.03C20.78 30.36 21.32 29.83 21.99 29.83Z" fill="#ED1C24" fill-opacity="1.000000" fill-rule="evenodd"/>
	</g>
</svg>
