<svg width="180.000000" height="50.000000" viewBox="0 0 180 50" fill="none" xmlns="http://www.w3.org/2000/svg" xmlns:xlink="http://www.w3.org/1999/xlink">
	<desc>
			Created with Pixso.
	</desc>
	<defs>
		<clipPath id="clip960_8882">
			<rect id="Ukrposhta-ua 1" width="180.000000" height="50.000000" fill="white" fill-opacity="0"/>
		</clipPath>
	</defs>
	<rect id="Ukrposhta-ua 1" width="180.000000" height="50.000000" fill="#FFFFFF" fill-opacity="0"/>
	<g clip-path="url(#clip960_8882)">
		<path id="path14" d="M31.63 28.7C31.63 28.7 15.69 24.95 15.69 24.95C10.94 23.84 7.96 18.93 9.03 14C10.11 9.06 14.83 5.97 19.58 7.08C24.34 8.2 27.32 13.11 26.24 18.04C25.7 20.51 24.25 22.52 22.34 23.77C22.34 23.77 22.33 23.77 22.33 23.77C22.27 23.82 22.24 23.88 22.24 23.96C22.24 24.07 22.31 24.16 22.4 24.18C22.4 24.18 29.5 25.85 29.5 25.85C29.67 25.89 29.84 25.82 29.94 25.68C29.94 25.68 29.94 25.68 29.94 25.68C31.9 22.99 33.07 19.64 33.07 16.02C33.07 7.49 26.65 0.52 18.56 0.02C18.49 0.02 18.05 0 17.9 0C14.31 -0.06 10.68 1.01 7.52 3.31C-0.46 9.11 -2.4 20.53 3.19 28.82L17.37 49.85C17.43 49.94 17.53 50 17.64 50C17.75 50 17.84 49.94 17.9 49.85C17.9 49.85 31.83 29.23 31.83 29.23C31.87 29.17 31.89 29.1 31.89 29.03C31.89 28.87 31.78 28.73 31.63 28.7Z" fill="#FABC26" fill-opacity="1.000000" fill-rule="nonzero"/>
		<path id="path16" d="M45.28 9.84C45.45 9.84 45.56 9.9 45.62 10.02L50.34 18.4L50.57 18.4L54.59 10.14C54.68 9.93 54.85 9.84 55.07 9.84L57.96 9.84C58.22 9.84 58.36 10.11 58.24 10.31L49.92 25.61C49.83 25.78 49.67 25.87 49.44 25.87L46.61 25.87C46.3 25.87 46.27 25.66 46.38 25.43L48.62 21.46L41.93 10.23C41.82 10.02 41.91 9.84 42.1 9.84L45.28 9.84Z" fill="#022750" fill-opacity="1.000000" fill-rule="nonzero"/>
		<path id="path18" d="M63.22 9.84C63.47 9.84 63.61 9.99 63.61 10.26L63.61 16.54L69.98 10.08C70.15 9.93 70.41 9.84 70.72 9.84L74.17 9.84C74.43 9.84 74.51 10.08 74.32 10.28L67.55 16.87L74.74 25.43C74.94 25.63 74.83 25.87 74.57 25.87L71.17 25.87C70.86 25.87 70.64 25.78 70.46 25.58L65.08 18.97L63.61 20.39L63.61 25.46C63.61 25.72 63.47 25.87 63.22 25.87L60.72 25.87C60.47 25.87 60.33 25.72 60.33 25.46L60.33 10.26C60.33 9.99 60.47 9.84 60.72 9.84L63.22 9.84Z" fill="#022750" fill-opacity="1.000000" fill-rule="nonzero"/>
		<path id="path20" d="M84.13 18.37C85.86 18.37 86.85 17.25 86.85 15.7C86.85 14.17 85.86 13.08 84.13 13.08L80.02 13.08L80.02 18.37L84.13 18.37ZM84.13 9.84C87.56 9.84 90.13 12.4 90.13 15.7C90.13 19.11 87.56 21.61 84.13 21.61L80.02 21.61L80.02 25.46C80.02 25.72 79.88 25.87 79.63 25.87L77.14 25.87C76.88 25.87 76.74 25.72 76.74 25.46L76.74 10.26C76.74 9.99 76.88 9.84 77.14 9.84L84.13 9.84Z" fill="#022750" fill-opacity="1.000000" fill-rule="nonzero"/>
		<path id="path22" d="M105.61 9.84C105.86 9.84 106.01 9.99 106.01 10.26L106.01 25.46C106.01 25.72 105.86 25.87 105.61 25.87L103.12 25.87C102.86 25.87 102.72 25.72 102.72 25.46L102.72 13.05L95.87 13.05L95.87 25.46C95.87 25.72 95.73 25.87 95.47 25.87L92.98 25.87C92.73 25.87 92.58 25.72 92.58 25.46L92.58 10.26C92.58 9.99 92.73 9.84 92.98 9.84L105.61 9.84Z" fill="#022750" fill-opacity="1.000000" fill-rule="nonzero"/>
		<path id="path24" d="M112.24 17.87C112.24 20.78 114.23 22.9 117.06 22.9C119.86 22.9 121.84 20.78 121.84 17.87C121.84 14.9 119.86 12.81 117.06 12.81C114.23 12.81 112.24 14.9 112.24 17.87ZM117.06 9.61C121.5 9.61 125.16 13.17 125.16 17.87C125.16 22.61 121.5 26.1 117.06 26.1C112.58 26.1 108.93 22.61 108.93 17.87C108.93 13.17 112.58 9.61 117.06 9.61Z" fill="#022750" fill-opacity="1.000000" fill-rule="nonzero"/>
		<path id="path26" d="M136.15 22.66L136.15 10.25C136.15 9.99 136.29 9.84 136.55 9.84L138.98 9.84C139.24 9.84 139.38 9.99 139.38 10.25L139.38 22.66L144.22 22.66L144.22 10.25C144.22 9.99 144.36 9.84 144.62 9.84L147.05 9.84C147.31 9.84 147.45 9.99 147.45 10.25L147.45 25.46C147.45 25.72 147.31 25.87 147.05 25.87L128.48 25.87C128.28 25.87 128.08 25.72 128.08 25.46L128.08 10.25C128.08 9.99 128.22 9.84 128.48 9.84L130.91 9.84C131.17 9.84 131.31 9.99 131.31 10.25L131.31 22.66L136.15 22.66Z" fill="#022750" fill-opacity="1.000000" fill-rule="nonzero"/>
		<path id="path28" d="M163.18 9.84C163.44 9.84 163.58 9.99 163.58 10.26L163.58 12.67C163.58 12.93 163.44 13.08 163.18 13.08L158.25 13.08L158.25 25.46C158.25 25.72 158.11 25.87 157.86 25.87L155.37 25.87C155.11 25.87 154.97 25.72 154.97 25.46L154.97 13.08L150.04 13.08C149.79 13.08 149.65 12.93 149.65 12.67L149.65 10.26C149.65 9.99 149.79 9.84 150.04 9.84L163.18 9.84Z" fill="#022750" fill-opacity="1.000000" fill-rule="nonzero"/>
		<path id="path30" d="M168.79 19.61L174.16 19.61L171.67 13.02L171.36 13.02L168.79 19.61ZM175.3 22.69L167.6 22.69L166.52 25.52C166.44 25.75 166.27 25.87 166.04 25.87L163.24 25.87C162.95 25.87 162.87 25.72 162.95 25.46L169.64 10.08C169.69 9.93 169.81 9.84 170 9.84L173.23 9.84C173.43 9.84 173.54 9.93 173.6 10.08L179.97 25.4C180.06 25.63 179.91 25.87 179.66 25.87L176.97 25.87C176.69 25.87 176.49 25.72 176.37 25.46L175.3 22.69Z" fill="#022750" fill-opacity="1.000000" fill-rule="nonzero"/>
		<path id="path32" d="M44.11 39.61L44.11 32.75L48.46 32.75L48.46 33.54L44.99 33.54L44.99 39.61L44.11 39.61Z" fill="#617171" fill-opacity="1.000000" fill-rule="nonzero"/>
		<path id="path34" d="M50.6 36.17C50.6 37.88 51.51 38.99 52.91 38.99C54.29 38.99 55.19 37.87 55.19 36.17C55.19 34.47 54.29 33.37 52.89 33.37C51.33 33.37 50.6 34.7 50.6 36.17ZM56.07 36.12C56.07 38.14 55 39.77 52.9 39.77C50.78 39.77 49.73 38.1 49.73 36.1C49.73 33.96 50.97 32.58 52.89 32.58C54.94 32.58 56.07 34.08 56.07 36.12Z" fill="#617171" fill-opacity="1.000000" fill-rule="nonzero"/>
		<path id="path36" d="M62.9 39.61L62.03 39.61L62.03 33.54L59.59 33.54L59.46 37.4C59.41 38.78 58.93 39.75 57.92 39.75C57.74 39.75 57.46 39.69 57.29 39.62L57.29 38.85C57.41 38.93 57.66 38.95 57.77 38.95C58.24 38.95 58.58 38.67 58.63 36.93L58.75 32.75L62.9 32.75L62.9 39.61Z" fill="#617171" fill-opacity="1.000000" fill-rule="nonzero"/>
		<path id="path38" d="M65.84 36.17C65.84 37.88 66.74 38.99 68.14 38.99C69.52 38.99 70.43 37.87 70.43 36.17C70.43 34.47 69.52 33.37 68.12 33.37C66.56 33.37 65.84 34.7 65.84 36.17ZM71.3 36.12C71.3 38.14 70.23 39.77 68.13 39.77C66.01 39.77 64.96 38.1 64.96 36.1C64.96 33.96 66.2 32.58 68.12 32.58C70.18 32.58 71.3 34.08 71.3 36.12Z" fill="#617171" fill-opacity="1.000000" fill-rule="nonzero"/>
		<path id="path40" d="M74.21 38.85L75.96 38.85C76.84 38.85 77.7 38.79 77.7 37.59C77.7 36.39 76.69 36.4 75.81 36.4L74.21 36.4L74.21 38.85ZM74.21 35.69L75.78 35.69C76.52 35.69 77.41 35.63 77.41 34.6C77.41 33.57 76.64 33.52 75.86 33.52L74.21 33.52L74.21 35.69ZM76.18 32.75C77.28 32.75 78.29 33.2 78.29 34.46C78.29 35.14 77.91 35.72 77.31 35.94C78.13 36.13 78.58 36.77 78.58 37.67C78.58 39.25 77.34 39.61 76.08 39.61L73.35 39.61L73.35 32.75L76.18 32.75Z" fill="#617171" fill-opacity="1.000000" fill-rule="nonzero"/>
		<path id="path42" d="M85.91 39.61L85.04 39.61L85.04 36.4L81.54 36.4L81.54 39.61L80.67 39.61L80.67 32.75L81.54 32.75L81.54 35.61L85.04 35.61L85.04 32.75L85.91 32.75L85.91 39.61Z" fill="#617171" fill-opacity="1.000000" fill-rule="nonzero"/>
		<path id="path44" d="M90.79 33.61L89.65 36.79L91.91 36.79L90.79 33.61ZM93.88 39.61L92.91 39.61L92.17 37.51L89.39 37.51L88.64 39.61L87.71 39.61L90.31 32.75L91.3 32.75L93.88 39.61Z" fill="#617171" fill-opacity="1.000000" fill-rule="nonzero"/>
		<path id="path46" d="M104.65 39.61L103.78 39.61L103.78 33.54L100.28 33.54L100.28 39.61L99.41 39.61L99.41 32.75L104.65 32.75L104.65 39.61Z" fill="#617171" fill-opacity="1.000000" fill-rule="nonzero"/>
		<path id="path48" d="M107.59 36.17C107.59 37.88 108.49 38.99 109.89 38.99C111.28 38.99 112.18 37.87 112.18 36.17C112.18 34.47 111.28 33.37 109.88 33.37C108.32 33.37 107.59 34.7 107.59 36.17ZM113.05 36.12C113.05 38.14 111.99 39.77 109.89 39.77C107.77 39.77 106.72 38.1 106.72 36.1C106.72 33.96 107.95 32.58 109.88 32.58C111.93 32.58 113.05 34.08 113.05 36.12Z" fill="#617171" fill-opacity="1.000000" fill-rule="nonzero"/>
		<path id="path50" d="M115.11 32.75L115.98 32.75L115.98 38.82L118.92 38.82L118.92 32.75L119.79 32.75L119.79 38.82L122.73 38.82L122.73 32.75L123.6 32.75L123.6 39.61L115.11 39.61L115.11 32.75Z" fill="#617171" fill-opacity="1.000000" fill-rule="nonzero"/>
		<path id="path52" d="M130.77 33.54L128.55 33.54L128.55 39.61L127.68 39.61L127.68 33.54L125.46 33.54L125.46 32.75L130.77 32.75L130.77 33.54Z" fill="#617171" fill-opacity="1.000000" fill-rule="nonzero"/>
		<path id="path54" d="M134.15 33.61L133.01 36.79L135.28 36.79L134.15 33.61ZM137.25 39.61L136.27 39.61L135.54 37.51L132.76 37.51L132.01 39.61L131.08 39.61L133.68 32.75L134.67 32.75L137.25 39.61Z" fill="#617171" fill-opacity="1.000000" fill-rule="nonzero"/>
		<path id="path56" d="M145.36 35.5L148.26 39.61L147.14 39.61L144.75 36.12L143.65 37.2L143.65 39.61L142.78 39.61L142.78 32.75L143.65 32.75L143.65 36.15L147 32.75L148.14 32.75L145.36 35.5Z" fill="#617171" fill-opacity="1.000000" fill-rule="nonzero"/>
		<path id="path58" d="M150.97 36.03L152.66 36.03C153.5 36.03 154.15 35.79 154.15 34.78C154.15 33.68 153.4 33.53 152.53 33.53L150.97 33.53L150.97 36.03ZM152.82 32.75C154.09 32.75 155.02 33.3 155.02 34.72C155.02 36.28 154.06 36.8 152.77 36.8L150.97 36.8L150.97 39.61L150.1 39.61L150.1 32.75L152.82 32.75Z" fill="#617171" fill-opacity="1.000000" fill-rule="nonzero"/>
		<path id="path60" d="M158.89 33.61L157.75 36.79L160.01 36.79L158.89 33.61ZM161.98 39.61L161.01 39.61L160.27 37.51L157.5 37.51L156.74 39.61L155.81 39.61L158.41 32.75L159.4 32.75L161.98 39.61Z" fill="#617171" fill-opacity="1.000000" fill-rule="nonzero"/>
		<path id="path62" d="M165.54 32.16L164.7 32.16L164.7 31.19L165.54 31.19L165.54 32.16ZM164.67 39.61L163.8 39.61L163.8 32.75L164.67 32.75L164.67 39.61ZM163.78 32.16L162.94 32.16L162.94 31.19L163.78 31.19L163.78 32.16Z" fill="#617171" fill-opacity="1.000000" fill-rule="nonzero"/>
		<path id="path64" d="M172.33 39.61L171.45 39.61L171.45 36.4L167.96 36.4L167.96 39.61L167.09 39.61L167.09 32.75L167.96 32.75L167.96 35.61L171.45 35.61L171.45 32.75L172.33 32.75L172.33 39.61Z" fill="#617171" fill-opacity="1.000000" fill-rule="nonzero"/>
		<path id="path66" d="M174.73 32.75L175.61 32.75L175.61 38.56L175.62 38.56L178.87 32.75L179.97 32.75L179.97 39.61L179.1 39.61L179.1 33.78L179.08 33.78L175.83 39.61L174.73 39.61L174.73 32.75Z" fill="#617171" fill-opacity="1.000000" fill-rule="nonzero"/>
	</g>
</svg>
